<svg width="44.000000" height="44.000000" viewBox="0 0 44 44" fill="none" xmlns="http://www.w3.org/2000/svg" xmlns:xlink="http://www.w3.org/1999/xlink">
	<desc>
			Created with Pixso.
	</desc>
	<defs>
		<clipPath id="clip723_1926">
			<rect id="icon" width="44.000000" height="44.000000" fill="white" fill-opacity="0"/>
		</clipPath>
	</defs>
	<g clip-path="url(#clip723_1926)">
		<path id="Union" d="M32.0742 28.2646C30.459 29.7373 29.1992 31.6816 29.1992 33.8672L29.1992 35C29.1992 36.1045 28.3047 37 27.1992 37L22.1504 37L17.0996 37C15.9961 37 15.0996 36.1045 15.0996 35L15.0996 34.1211C15.0996 31.8867 13.7871 29.9082 12.1113 28.4297C8.97852 25.665 7 21.6074 7 17.0859C7 8.75391 13.7168 2 22 2C30.2832 2 37 8.75391 37 17.0859C37 21.5186 35.0996 25.5039 32.0742 28.2646ZM29.1992 41L15.0996 41M22.1504 37L22.1504 26L16.5 20M22.1504 26L28 20" stroke="#2CAE39" stroke-opacity="1.000000" stroke-width="2.500000"/>
	</g>
</svg>
