<svg width="44.000000" height="44.000000" viewBox="0 0 44 44" fill="none" xmlns="http://www.w3.org/2000/svg" xmlns:xlink="http://www.w3.org/1999/xlink">
	<desc>
			Created with Pixso.
	</desc>
	<defs>
		<clipPath id="clip723_1870">
			<rect id="icon" width="44.000000" height="44.000000" fill="white" fill-opacity="0"/>
		</clipPath>
	</defs>
	<g clip-path="url(#clip723_1870)">
		<path id="Rectangle 45" d="M8 41C5.79102 41 4 39.209 4 37L4 13L4 9C4 6.79102 5.79102 5 8 5L13 5L22 5L31 5L36 5C38.209 5 40 6.79102 40 9L40 13L40 37C40 39.209 38.209 41 36 41L8 41ZM4 13L40 13M13 5L31 5M31 2L31 5M13 5L13 2M15 25.125L18.8711 30.0918C19.6426 31.082 21.125 31.125 21.9512 30.1807L30 21" stroke="#2CAE39" stroke-opacity="1.000000" stroke-width="2.500000"/>
	</g>
</svg>
