<svg width="44.000000" height="44.000000" viewBox="0 0 44 44" fill="none" xmlns="http://www.w3.org/2000/svg" xmlns:xlink="http://www.w3.org/1999/xlink">
	<desc>
			Created with Pixso.
	</desc>
	<defs>
		<clipPath id="clip723_1931">
			<rect id="icon" width="44.000000" height="44.000000" fill="white" fill-opacity="0"/>
		</clipPath>
	</defs>
	<g clip-path="url(#clip723_1931)">
		<circle id="Ellipse 6" cx="22.000000" cy="22.000000" r="19.000000" stroke="#2CAE39" stroke-opacity="1.000000" stroke-width="2.500000"/>
		<path id="Ellipse 7" d="M29.1543 27.4795Q28.5645 28.8994 27.4746 29.9873Q26.3867 31.0742 24.9629 31.6621Q23.5391 32.25 22 32.25Q20.4609 32.25 19.0371 31.6621Q17.6133 31.0742 16.5254 29.9873Q15.4355 28.8994 14.8457 27.4795L17.1543 26.5205Q17.5527 27.4814 18.291 28.2168Q19.0273 28.9531 19.9922 29.3516Q20.957 29.75 22 29.75Q23.043 29.75 24.0078 29.3516Q24.9727 28.9531 25.709 28.2168Q26.4473 27.4814 26.8457 26.5205L29.1543 27.4795ZM26.8555 26.5469L26.8457 26.5205C27.1133 25.874 27.832 25.5771 28.4785 25.8457C29.125 26.1143 29.4238 26.833 29.1543 27.4795L29.1289 27.4902L26.8555 26.5469ZM14.8711 27.4902L14.8457 27.4795C14.5762 26.833 14.875 26.1143 15.5215 25.8457C16.168 25.5771 16.8867 25.874 17.1543 26.5205L17.1445 26.5469L14.8711 27.4902Z" fill="#2CAE39" fill-opacity="1.000000" fill-rule="evenodd"/>
		<circle id="Ellipse 8" cx="15.500000" cy="18.500000" r="2.500000" fill="#2CAE39" fill-opacity="1.000000"/>
		<circle id="Ellipse 9" cx="28.500000" cy="18.500000" r="2.500000" fill="#2CAE39" fill-opacity="1.000000"/>
	</g>
</svg>
