<svg width="44.000000" height="44.000000" viewBox="0 0 44 44" fill="none" xmlns="http://www.w3.org/2000/svg" xmlns:xlink="http://www.w3.org/1999/xlink">
	<desc>
			Created with Pixso.
	</desc>
	<defs>
		<clipPath id="clip723_1912">
			<rect id="icon" width="44.000000" height="44.000000" fill="white" fill-opacity="0"/>
		</clipPath>
	</defs>
	<g clip-path="url(#clip723_1912)">
		<path id="Star 4" d="M27.0742 14.918C27.252 15.4775 27.7637 15.8564 28.3379 15.8564L40.668 15.8564C41.9551 15.8564 42.4922 17.54 41.4492 18.3135L31.4746 25.7178C31.0098 26.0635 30.8145 26.6768 30.9922 27.2363L34.8027 39.2158C35.1992 40.4668 33.7988 41.5078 32.7559 40.7344L22.7812 33.3311C22.3164 32.9844 21.6836 32.9844 21.2188 33.3311L11.2441 40.7344C10.2012 41.5078 8.80078 40.4668 9.19727 39.2158L13.0078 27.2363C13.1855 26.6768 12.9902 26.0635 12.5254 25.7178L2.55078 18.3135C1.50781 17.54 2.04492 15.8564 3.33203 15.8564L15.6621 15.8564C16.2363 15.8564 16.748 15.4775 16.9258 14.918L20.7363 2.93848C21.1328 1.6875 22.8672 1.6875 23.2637 2.93848L27.0742 14.918Z" stroke="#2CAE39" stroke-opacity="1.000000" stroke-width="2.500000"/>
	</g>
</svg>
