<svg width="26.990234" height="27.000000" viewBox="0 0 26.9902 27" fill="none" xmlns="http://www.w3.org/2000/svg" xmlns:xlink="http://www.w3.org/1999/xlink">
	<desc>
			Created with Pixso.
	</desc>
	<defs/>
	<path id="Vector" d="M17 0C15.4219 0.000976562 13.8662 0.375977 12.46 1.09375C11.0542 1.81055 9.83789 2.85059 8.91016 4.12793C7.98291 5.4043 7.37061 6.88281 7.12354 8.44238C6.87646 10.001 7.00146 11.5957 7.48877 13.0977L0.29248 20.293C0.199707 20.3857 0.125977 20.4961 0.0756836 20.6172C0.0258789 20.7383 0 20.8682 0 21L0 26C0 26.2656 0.105469 26.5195 0.292969 26.707C0.480469 26.8945 0.734863 27 1 27L6 27C6.26514 27 6.51953 26.8945 6.70703 26.707C6.89453 26.5195 7 26.2656 7 26L7 24L9 24C9.26514 24 9.51953 23.8945 9.70703 23.707C9.89453 23.5195 10 23.2656 10 23L10 21L12 21C12.1313 21 12.2612 20.9746 12.3828 20.9238C12.5044 20.874 12.6147 20.8008 12.7075 20.707L13.9023 19.5117C15.2769 19.957 16.7314 20.1006 18.1665 19.9307C19.6016 19.7607 20.9829 19.2812 22.2148 18.5264C23.4473 17.7715 24.501 16.7588 25.3042 15.5576C26.1069 14.3564 26.6401 12.9951 26.8667 11.5684C27.0933 10.1406 27.0078 8.68164 26.6167 7.29004C26.2251 5.89941 25.5366 4.61035 24.5986 3.51074C23.6611 2.41113 22.4961 1.52832 21.1846 0.921875C19.8726 0.31543 18.4448 0.000976562 17 0ZM17 18C15.9878 18.002 14.9844 17.8105 14.0439 17.4365C13.8599 17.3564 13.6558 17.334 13.459 17.3711C13.2617 17.4082 13.0806 17.5049 12.939 17.6465L11.5864 19L9 19C8.73486 19 8.48047 19.1055 8.29297 19.293C8.10547 19.4805 8 19.7344 8 20L8 22L6 22C5.73486 22 5.48047 22.1055 5.29297 22.293C5.10547 22.4805 5 22.7344 5 23L5 25L2 25L2 21.4141L9.35352 14.0615C9.49561 13.9189 9.59131 13.7383 9.62891 13.541C9.6665 13.3438 9.64355 13.1406 9.56396 12.9561C8.93115 11.3662 8.82568 9.61523 9.26172 7.95996C9.69824 6.30566 10.6538 4.83398 11.9878 3.7627C13.3223 2.69141 14.9648 2.0752 16.6748 2.00684C18.3848 1.9375 20.0718 2.41895 21.4883 3.37891C22.9043 4.33984 23.9751 5.72949 24.5435 7.34375C25.1118 8.95801 25.1475 10.7119 24.6455 12.3477C24.1431 13.9834 23.1294 15.415 21.7534 16.4326C20.3774 17.4502 18.7114 17.999 17 18ZM21 7.5C21 7.79688 20.9121 8.08691 20.7471 8.33301C20.5825 8.58008 20.3481 8.77246 20.0742 8.88574C19.7998 8.99902 19.4985 9.0293 19.2075 8.9707C18.9165 8.91309 18.6489 8.77051 18.4395 8.56055C18.2295 8.35059 18.0869 8.08398 18.0288 7.79297C17.9707 7.50195 18.0005 7.2002 18.1143 6.92578C18.2275 6.65234 18.4199 6.41797 18.6665 6.25293C18.9131 6.08789 19.2031 6 19.5 6C19.8979 6 20.2793 6.1582 20.5605 6.43945C20.8418 6.7207 21 7.10254 21 7.5Z" fill="#2CAE39" fill-opacity="1.000000" fill-rule="nonzero"/>
	<path id="Vector" d="" fill="#2CAE39" fill-opacity="1.000000" fill-rule="evenodd"/>
</svg>
