<svg width="26.000000" height="25.000000" viewBox="0 0 26 25" fill="none" xmlns="http://www.w3.org/2000/svg" xmlns:xlink="http://www.w3.org/1999/xlink">
	<desc>
			Created with Pixso.
	</desc>
	<defs/>
	<path id="Vector" d="M24 6L20 6L20 2C20 1.46973 19.7891 0.960938 19.4141 0.585938C19.0391 0.210938 18.5303 0 18 0L2 0C1.46973 0 0.960938 0.210938 0.585938 0.585938C0.210938 0.960938 0 1.46973 0 2L0 18C0.000488281 18.1885 0.0541992 18.3721 0.154785 18.5312C0.255371 18.6904 0.398926 18.8174 0.568359 18.8994C0.738281 18.9805 0.927246 19.0117 1.11426 18.9902C1.30127 18.9688 1.47803 18.8955 1.625 18.7773L6 15.25L6 19C6 19.5303 6.21094 20.0391 6.58594 20.4141C6.96094 20.7891 7.46973 21 8 21L19.6987 21L24.375 24.7773C24.5518 24.9209 24.7725 24.999 25 25C25.2651 25 25.5195 24.8945 25.707 24.707C25.8945 24.5195 26 24.2656 26 24L26 8C26 7.46973 25.7891 6.96094 25.4141 6.58594C25.0391 6.21094 24.5303 6 24 6ZM5.31885 13.2227L2 15.9062L2 2L18 2L18 13L5.94727 13C5.71875 13 5.49658 13.0781 5.31885 13.2227ZM24 21.9062L20.6812 19.2227C20.5044 19.0791 20.2837 19.001 20.0562 19L8 19L8 15L18 15C18.5303 15 19.0391 14.7891 19.4141 14.4141C19.7891 14.0391 20 13.5303 20 13L20 8L24 8L24 21.9062Z" fill="#2CAE39" fill-opacity="1.000000" fill-rule="nonzero"/>
	<path id="Vector" d="" fill="#2CAE39" fill-opacity="1.000000" fill-rule="evenodd"/>
</svg>
