<svg width="30.000000" height="26.000977" viewBox="0 0 30 26.001" fill="none" xmlns="http://www.w3.org/2000/svg" xmlns:xlink="http://www.w3.org/1999/xlink">
	<desc>
			Created with Pixso.
	</desc>
	<defs/>
	<path id="Vector" d="M29 24.001L27 24.001L27 10.001C27 9.4707 26.7891 8.96191 26.4141 8.58691C26.0391 8.21191 25.5303 8.00098 25 8.00098L17 8.00098L17 2.00098C17 1.63867 16.9023 1.28418 16.7163 0.972656C16.5303 0.662109 16.2632 0.408203 15.9438 0.236328C15.6245 0.0654297 15.2651 -0.015625 14.9033 0.00195312C14.5415 0.0195312 14.1914 0.135742 13.8901 0.335938L3.89014 7.00098C3.61572 7.18457 3.39062 7.43262 3.23535 7.72363C3.08008 8.01465 2.99951 8.33887 3 8.66895L3 24.001L1 24.001C0.734863 24.001 0.480469 24.1064 0.292969 24.2939C0.105469 24.4814 0 24.7363 0 25.001C0 25.2666 0.105469 25.5205 0.292969 25.708C0.480469 25.8955 0.734863 26.001 1 26.001L29 26.001C29.2651 26.001 29.5195 25.8955 29.707 25.708C29.8945 25.5205 30 25.2666 30 25.001C30 24.7363 29.8945 24.4814 29.707 24.2939C29.5195 24.1064 29.2651 24.001 29 24.001ZM25 10.001L25 24.001L17 24.001L17 10.001L25 10.001ZM5 8.66895L15 2.00098L15 24.001L5 24.001L5 8.66895ZM13 12.001L13 14.001C13 14.2666 12.8945 14.5205 12.707 14.708C12.5195 14.8955 12.2651 15.001 12 15.001C11.7349 15.001 11.4805 14.8955 11.293 14.708C11.1055 14.5205 11 14.2666 11 14.001L11 12.001C11 11.7363 11.1055 11.4814 11.293 11.2939C11.4805 11.1064 11.7349 11.001 12 11.001C12.2651 11.001 12.5195 11.1064 12.707 11.2939C12.8945 11.4814 13 11.7363 13 12.001ZM9 12.001L9 14.001C9 14.2666 8.89453 14.5205 8.70703 14.708C8.51953 14.8955 8.26514 15.001 8 15.001C7.73486 15.001 7.48047 14.8955 7.29297 14.708C7.10547 14.5205 7 14.2666 7 14.001L7 12.001C7 11.7363 7.10547 11.4814 7.29297 11.2939C7.48047 11.1064 7.73486 11.001 8 11.001C8.26514 11.001 8.51953 11.1064 8.70703 11.2939C8.89453 11.4814 9 11.7363 9 12.001ZM9 19.001L9 21.001C9 21.2666 8.89453 21.5205 8.70703 21.708C8.51953 21.8955 8.26514 22.001 8 22.001C7.73486 22.001 7.48047 21.8955 7.29297 21.708C7.10547 21.5205 7 21.2666 7 21.001L7 19.001C7 18.7363 7.10547 18.4814 7.29297 18.2939C7.48047 18.1064 7.73486 18.001 8 18.001C8.26514 18.001 8.51953 18.1064 8.70703 18.2939C8.89453 18.4814 9 18.7363 9 19.001ZM13 19.001L13 21.001C13 21.2666 12.8945 21.5205 12.707 21.708C12.5195 21.8955 12.2651 22.001 12 22.001C11.7349 22.001 11.4805 21.8955 11.293 21.708C11.1055 21.5205 11 21.2666 11 21.001L11 19.001C11 18.7363 11.1055 18.4814 11.293 18.2939C11.4805 18.1064 11.7349 18.001 12 18.001C12.2651 18.001 12.5195 18.1064 12.707 18.2939C12.8945 18.4814 13 18.7363 13 19.001Z" fill="#2CAE39" fill-opacity="1.000000" fill-rule="nonzero"/>
	<path id="Vector" d="" fill="#2CAE39" fill-opacity="1.000000" fill-rule="evenodd"/>
</svg>
