<svg width="28.000000" height="28.000000" viewBox="0 0 28 28" fill="none" xmlns="http://www.w3.org/2000/svg" xmlns:xlink="http://www.w3.org/1999/xlink">
	<desc>
			Created with Pixso.
	</desc>
	<defs/>
	<path id="Vector" d="M26.2324 10.8525C25.7612 10.3604 25.2739 9.85254 25.0898 9.40625C24.9199 8.99707 24.9102 8.32031 24.8999 7.66406C24.8813 6.44336 24.8613 5.06152 23.8999 4.09961C22.939 3.13867 21.5562 3.11914 20.3364 3.09961C19.6802 3.08984 19.0024 3.08008 18.5938 2.91016C18.1489 2.72656 17.6401 2.23828 17.1475 1.76758C16.2852 0.938477 15.3052 0 14 0C12.6948 0 11.7163 0.938477 10.8525 1.76758C10.3599 2.23828 9.85254 2.72656 9.40625 2.91016C9 3.08008 8.31982 3.08984 7.66357 3.09961C6.44385 3.11914 5.06104 3.13867 4.1001 4.09961C3.13867 5.06152 3.125 6.44336 3.1001 7.66406C3.08984 8.32031 3.08008 8.99707 2.91016 9.40625C2.72607 9.85156 2.23877 10.3604 1.76758 10.8525C0.938965 11.7148 0 12.6953 0 14C0 15.3047 0.938965 16.2842 1.76758 17.1475C2.23877 17.6396 2.72607 18.1475 2.91016 18.5938C3.08008 19.0029 3.08984 19.6797 3.1001 20.3359C3.11865 21.5566 3.13867 22.9385 4.1001 23.9004C5.06104 24.8613 6.44385 24.8809 7.66357 24.9004C8.31982 24.9102 8.99756 24.9199 9.40625 25.0898C9.85107 25.2734 10.3599 25.7617 10.8525 26.2324C11.7148 27.0615 12.6948 28 14 28C15.3052 28 16.2837 27.0615 17.1475 26.2324C17.6401 25.7617 18.1475 25.2734 18.5938 25.0898C19.0024 24.9199 19.6802 24.9102 20.3364 24.9004C21.5562 24.8809 22.939 24.8613 23.8999 23.9004C24.8613 22.9385 24.8813 21.5566 24.8999 20.3359C24.9102 19.6797 24.9199 19.0029 25.0898 18.5938C25.2739 18.1484 25.7612 17.6396 26.2324 17.1475C27.061 16.2852 28 15.3047 28 14C28 12.6953 27.061 11.7158 26.2324 10.8525ZM24.7886 15.7637C24.1899 16.3887 23.5698 17.0352 23.2412 17.8291C22.9263 18.5908 22.9126 19.4629 22.8999 20.3066C22.8877 21.1816 22.8735 22.0977 22.4849 22.4854C22.0962 22.8721 21.186 22.8877 20.3062 22.9004C19.4624 22.9121 18.5913 22.9258 17.8286 23.2412C17.0352 23.5703 16.3887 24.1904 15.7637 24.7891C15.1387 25.3877 14.5 26 14 26C13.5 26 12.8564 25.3848 12.2363 24.7891C11.6162 24.1924 10.9648 23.5703 10.1714 23.2412C9.40869 22.9258 8.5376 22.9121 7.69385 22.9004C6.81885 22.8877 5.90234 22.874 5.51514 22.4854C5.12744 22.0967 5.1123 21.1865 5.1001 20.3066C5.0874 19.4629 5.07373 18.5908 4.75879 17.8291C4.43018 17.0352 3.81006 16.3887 3.21143 15.7637C2.6123 15.1387 2 14.5 2 14C2 13.5 2.61523 12.8564 3.21143 12.2363C3.80762 11.6162 4.43018 10.9648 4.75879 10.1709C5.07373 9.40918 5.0874 8.53711 5.1001 7.69336C5.1123 6.81836 5.12646 5.90234 5.51514 5.51465C5.90381 5.12793 6.81396 5.1123 7.69385 5.09961C8.5376 5.08789 9.40869 5.07422 10.1714 4.75879C10.9648 4.42969 11.6113 3.80957 12.2363 3.21094C12.8613 2.6123 13.5 2 14 2C14.5 2 15.1436 2.61523 15.7637 3.21094C16.3838 3.80762 17.0352 4.42969 17.8286 4.75879C18.5913 5.07422 19.4624 5.08789 20.3062 5.09961C21.1812 5.1123 22.0977 5.12598 22.4849 5.51465C22.8726 5.90332 22.8877 6.81348 22.8999 7.69336C22.9126 8.53711 22.9263 9.40918 23.2412 10.1709C23.5698 10.9648 24.1899 11.6113 24.7886 12.2363C25.3877 12.8613 26 13.5 26 14C26 14.5 25.3848 15.1436 24.7886 15.7637ZM15.5 20.5C15.5 20.7969 15.4121 21.0869 15.2471 21.333C15.0825 21.5801 14.8481 21.7725 14.5742 21.8857C14.2998 21.999 13.9985 22.0293 13.7075 21.9707C13.4165 21.9131 13.1489 21.7705 12.9395 21.5605C12.7295 21.3506 12.5869 21.084 12.5288 20.793C12.4707 20.502 12.5005 20.2002 12.6143 19.9258C12.7275 19.6523 12.9199 19.418 13.1665 19.2529C13.4131 19.0879 13.7031 19 14 19C14.3979 19 14.7793 19.1582 15.0605 19.4395C15.3418 19.7207 15.5 20.1025 15.5 20.5ZM19 11.5C19 13.6729 17.2798 15.4912 15 15.9102L15 16C15 16.2656 14.8945 16.5195 14.707 16.707C14.5195 16.8945 14.2651 17 14 17C13.7349 17 13.4805 16.8945 13.293 16.707C13.1055 16.5195 13 16.2656 13 16L13 15C13 14.7344 13.1055 14.4805 13.293 14.293C13.4805 14.1055 13.7349 14 14 14C15.6538 14 17 12.875 17 11.5C17 10.125 15.6538 9 14 9C12.3462 9 11 10.125 11 11.5L11 12C11 12.2656 10.8945 12.5195 10.707 12.707C10.5195 12.8945 10.2651 13 10 13C9.73486 13 9.48047 12.8945 9.29297 12.707C9.10547 12.5195 9 12.2656 9 12L9 11.5C9 9.01855 11.2427 7 14 7C16.7573 7 19 9.01855 19 11.5Z" fill="#2CAE39" fill-opacity="1.000000" fill-rule="nonzero"/>
	<path id="Vector" d="" fill="#2CAE39" fill-opacity="1.000000" fill-rule="evenodd"/>
</svg>
