<svg width="28" height="28" viewBox="0 0 28 28" fill="none" xmlns="http://www.w3.org/2000/svg">
<path fill-rule="evenodd" clip-rule="evenodd" d="M4.51239 12.8488C10.418 10.2759 14.3559 8.57959 16.3263 7.76003C21.9521 5.42005 23.1211 5.01357 23.883 5.00014C24.0506 4.99719 24.4253 5.03872 24.668 5.23567C24.873 5.40197 24.9294 5.62661 24.9563 5.78428C24.9833 5.94195 25.0169 6.30112 24.9902 6.58177C24.6854 9.78503 23.3662 17.5585 22.6951 21.1462C22.4111 22.6643 21.852 23.1733 21.3107 23.2231C20.1343 23.3314 19.2409 22.4457 18.1015 21.6988C16.3186 20.53 15.3113 19.8025 13.5807 18.662C11.5806 17.3439 12.8772 16.6195 14.017 15.4356C14.3153 15.1258 19.4986 10.4112 19.5989 9.98348C19.6115 9.92999 19.6231 9.7306 19.5046 9.62532C19.3862 9.52004 19.2114 9.55604 19.0852 9.58467C18.9064 9.62526 16.0581 11.5079 10.5404 15.2326C9.73187 15.7877 8.99958 16.0582 8.34347 16.044C7.62016 16.0284 6.2288 15.6351 5.19447 15.2988C3.92583 14.8865 2.91753 14.6684 3.00533 13.9681C3.05106 13.6033 3.55341 13.2302 4.51239 12.8488Z" fill="#2AABEE"/>
</svg>
