<svg width="28" height="28" viewBox="0 0 28 28" fill="none" xmlns="http://www.w3.org/2000/svg">
<path d="M2 26L3.687 19.837C2.646 18.033 2.099 15.988 2.1 13.891C2.103 7.335 7.438 2 13.993 2C17.174 2.001 20.16 3.24 22.406 5.488C24.651 7.736 25.887 10.724 25.886 13.902C25.883 20.459 20.548 25.794 13.993 25.794C12.003 25.793 10.042 25.294 8.305 24.346L2 26ZM8.597 22.193C10.273 23.188 11.873 23.784 13.989 23.785C19.437 23.785 23.875 19.351 23.878 13.9C23.88 8.438 19.463 4.01 13.997 4.008C8.545 4.008 4.11 8.442 4.108 13.892C4.107 16.117 4.759 17.783 5.854 19.526L4.855 23.174L8.597 22.193ZM19.984 16.729C19.91 16.605 19.712 16.531 19.414 16.382C19.117 16.233 17.656 15.514 17.383 15.415C17.111 15.316 16.913 15.266 16.714 15.564C16.516 15.861 15.946 16.531 15.773 16.729C15.6 16.927 15.426 16.952 15.129 16.803C14.832 16.654 13.874 16.341 12.739 15.328C11.856 14.54 11.259 13.567 11.086 13.269C10.913 12.972 11.068 12.811 11.216 12.663C11.35 12.53 11.513 12.316 11.662 12.142C11.813 11.97 11.862 11.846 11.962 11.647C12.061 11.449 12.012 11.275 11.937 11.126C11.862 10.978 11.268 9.515 11.021 8.92C10.779 8.341 10.534 8.419 10.352 8.41L9.782 8.4C9.584 8.4 9.262 8.474 8.99 8.772C8.718 9.07 7.95 9.788 7.95 11.251C7.95 12.714 9.015 14.127 9.163 14.325C9.312 14.523 11.258 17.525 14.239 18.812C14.948 19.118 15.502 19.301 15.933 19.438C16.645 19.664 17.293 19.632 17.805 19.556C18.376 19.471 19.563 18.837 19.811 18.143C20.059 17.448 20.059 16.853 19.984 16.729Z" fill="#25D366"/>
</svg>
