<svg width="144" height="49" viewBox="0 0 144 49" fill="none" xmlns="http://www.w3.org/2000/svg">
<path d="M116.398 27.4L126.19 5H133.614L143.406 27.4H135.598L128.366 8.584H131.31L124.078 27.4H116.398ZM122.222 23.496L124.142 18.056H134.446L136.366 23.496H122.222Z" fill="#EF7F2F"/>
<path d="M92.3984 27.4V5H103.438C105.934 5 108.132 5.45867 110.03 6.376C111.929 7.272 113.412 8.552 114.478 10.216C115.545 11.88 116.078 13.864 116.078 16.168C116.078 18.4933 115.545 20.4987 114.478 22.184C113.412 23.848 111.929 25.1387 110.03 26.056C108.132 26.952 105.934 27.4 103.438 27.4H92.3984ZM99.9504 21.512H103.118C104.185 21.512 105.113 21.3093 105.902 20.904C106.713 20.4987 107.342 19.9013 107.79 19.112C108.238 18.3013 108.462 17.32 108.462 16.168C108.462 15.0373 108.238 14.0773 107.79 13.288C107.342 12.4987 106.713 11.9013 105.902 11.496C105.113 11.0907 104.185 10.888 103.118 10.888H99.9504V21.512Z" fill="#EF7F2F"/>
<path d="M63.3984 27.4L73.1904 5H80.6144L90.4064 27.4H82.5984L75.3664 8.584H78.3104L71.0784 27.4H63.3984ZM69.2224 23.496L71.1424 18.056H81.4464L83.3664 23.496H69.2224Z" fill="#EF7F2F"/>
<path d="M45.1504 22.6L44.7344 14.312L53.1824 5H61.4064L51.9344 15.432L47.7424 19.72L45.1504 22.6ZM38.3984 27.4V5H45.8224V27.4H38.3984ZM53.1184 27.4L46.5264 18.696L51.4224 13.512L61.8544 27.4H53.1184Z" fill="#EF7F2F"/>
<path fill-rule="evenodd" clip-rule="evenodd" d="M20.9361 3.17843C17.9651 0.273857 13.1483 0.273857 10.1774 3.17843L16.7926 9.64583L3.84408 22.3051C3.24989 22.886 3.24989 23.8279 3.84408 24.4088L7.07168 27.5643C7.66587 28.1452 8.62923 28.1452 9.22341 27.5643L22.1719 14.905L26.3154 18.956C26.9096 19.5369 27.8729 19.5369 28.4671 18.956L31.6947 15.8005C32.2889 15.2196 32.2889 14.2777 31.6947 13.6968L20.9361 3.17843Z" fill="#EF7F2F"/>
<path d="M132.286 47.9996V35.6484H134.379L140.109 44.3543V35.6484H142.201V47.9996H140.109L134.379 39.2937V47.9996H132.286Z" fill="#EF7F2F"/>
<path d="M124.146 48.2574C122.911 48.2574 121.853 47.9886 120.972 47.4511C120.092 46.9079 119.414 46.1531 118.94 45.1867C118.471 44.2204 118.236 43.0996 118.236 41.8245C118.236 40.5493 118.471 39.4286 118.94 38.4622C119.414 37.4959 120.092 36.7439 120.972 36.2064C121.853 35.6632 122.911 35.3916 124.146 35.3916C125.381 35.3916 126.439 35.6632 127.32 36.2064C128.206 36.7439 128.883 37.4959 129.352 38.4622C129.827 39.4286 130.064 40.5493 130.064 41.8245C130.064 43.0996 129.827 44.2204 129.352 45.1867C128.883 46.1531 128.206 46.9079 127.32 47.4511C126.439 47.9886 125.381 48.2574 124.146 48.2574ZM124.146 46.3104C124.975 46.3161 125.664 46.1331 126.213 45.7614C126.768 45.3897 127.182 44.8665 127.457 44.1918C127.737 43.5171 127.877 42.728 127.877 41.8245C127.877 40.921 127.737 40.1376 127.457 39.4743C127.182 38.8053 126.768 38.285 126.213 37.9133C125.664 37.5416 124.975 37.3501 124.146 37.3386C123.317 37.3329 122.628 37.5159 122.079 37.8876C121.53 38.2592 121.115 38.7824 120.835 39.4572C120.561 40.1319 120.424 40.921 120.424 41.8245C120.424 42.728 120.561 43.5142 120.835 44.1832C121.11 44.8465 121.521 45.364 122.07 45.7357C122.625 46.1074 123.317 46.2989 124.146 46.3104Z" fill="#EF7F2F"/>
<path d="M113.771 47.9996V35.6484H115.839V47.9996H113.771Z" fill="#EF7F2F"/>
<path d="M105.65 47.9996V37.5869H101.653V35.6484H111.714V37.5869H107.717V47.9996H105.65Z" fill="#EF7F2F"/>
<path d="M94.7266 48.2574C93.4915 48.2574 92.4336 47.9886 91.553 47.4511C90.6724 46.9079 89.9948 46.1531 89.5202 45.1867C89.0513 44.2204 88.8169 43.0996 88.8169 41.8245C88.8169 40.5493 89.0513 39.4286 89.5202 38.4622C89.9948 37.4959 90.6724 36.7439 91.553 36.2064C92.4336 35.6632 93.4915 35.3916 94.7266 35.3916C96.1504 35.3916 97.3369 35.749 98.2861 36.4637C99.2353 37.1728 99.9015 38.1306 100.285 39.3371L98.2003 39.9118C97.9602 39.1055 97.5513 38.4765 96.9738 38.0248C96.3963 37.5673 95.6472 37.3386 94.7266 37.3386C93.8974 37.3386 93.2056 37.5245 92.6509 37.8961C92.102 38.2678 91.6874 38.791 91.4072 39.4658C91.1327 40.1348 90.9926 40.921 90.9869 41.8245C90.9869 42.728 91.1242 43.5171 91.3986 44.1918C91.6788 44.8608 92.0962 45.3812 92.6509 45.7528C93.2056 46.1245 93.8974 46.3104 94.7266 46.3104C95.6472 46.3104 96.3963 46.0816 96.9738 45.6242C97.5513 45.1667 97.9602 44.5377 98.2003 43.7372L100.285 44.3119C99.9015 45.5184 99.2353 46.479 98.2861 47.1938C97.3369 47.9028 96.1504 48.2574 94.7266 48.2574Z" fill="#EF7F2F"/>
<path d="M81.6164 48.2569C80.6328 48.2569 79.7666 48.0568 79.0175 47.6565C78.2741 47.2562 77.6909 46.693 77.2677 45.9668C76.8503 45.2406 76.6416 44.3886 76.6416 43.4108V35.6656L78.7344 35.6484V43.3593C78.7344 43.8225 78.8116 44.2371 78.966 44.603C79.1261 44.969 79.3406 45.2806 79.6093 45.5379C79.8781 45.7895 80.1868 45.9811 80.5356 46.1126C80.8844 46.2441 81.2447 46.3099 81.6164 46.3099C81.9995 46.3099 82.3626 46.2441 82.7057 46.1126C83.0545 45.9754 83.3633 45.7809 83.632 45.5294C83.9008 45.272 84.1123 44.9604 84.2667 44.5944C84.4211 44.2285 84.4983 43.8168 84.4983 43.3593V35.6484H86.5911V43.4108C86.5911 44.3886 86.3796 45.2406 85.9564 45.9668C85.539 46.693 84.9557 47.2562 84.2067 47.6565C83.4633 48.0568 82.5999 48.2569 81.6164 48.2569Z" fill="#EF7F2F"/>
<path d="M64.8027 47.9996V35.6484H69.9062C70.0262 35.6484 70.1806 35.6542 70.3693 35.6656C70.558 35.6713 70.7324 35.6885 70.8925 35.7171C71.6073 35.8257 72.1963 36.063 72.6594 36.429C73.1283 36.7949 73.4743 37.2581 73.6973 37.8185C73.926 38.3731 74.0404 38.9907 74.0404 39.6711C74.0404 40.6775 73.7859 41.5438 73.277 42.27C72.7681 42.9905 71.9876 43.4365 70.9354 43.6081L70.052 43.6853H66.8698V47.9996H64.8027ZM71.8961 47.9996L69.4601 42.9734L71.5616 42.5102L74.2376 47.9996H71.8961ZM66.8698 41.7554H69.8204C69.9348 41.7554 70.0634 41.7497 70.2064 41.7382C70.3493 41.7268 70.4808 41.7039 70.6009 41.6696C70.944 41.5838 71.2127 41.4323 71.4072 41.215C71.6073 40.9977 71.7474 40.7519 71.8274 40.4774C71.9132 40.2029 71.9561 39.9342 71.9561 39.6711C71.9561 39.4081 71.9132 39.1394 71.8274 38.8649C71.7474 38.5847 71.6073 38.336 71.4072 38.1187C71.2127 37.9014 70.944 37.7498 70.6009 37.6641C70.4808 37.6298 70.3493 37.6098 70.2064 37.604C70.0634 37.5926 69.9348 37.5869 69.8204 37.5869H66.8698V41.7554Z" fill="#EF7F2F"/>
<path d="M56.8524 47.9996V37.5869H52.8555V35.6484H62.9165V37.5869H58.9195V47.9996H56.8524Z" fill="#EF7F2F"/>
<path d="M46.6677 48.257C45.7642 48.257 44.9494 48.0998 44.2232 47.7853C43.5027 47.4708 42.908 47.0219 42.4391 46.4386C41.9759 45.8497 41.6815 45.1521 41.5557 44.3458L43.7 44.0199C43.8829 44.7518 44.2575 45.3179 44.8236 45.7182C45.3954 46.1184 46.053 46.3186 46.7963 46.3186C47.2366 46.3186 47.6512 46.2499 48.04 46.1127C48.4288 45.9755 48.7433 45.7753 48.9835 45.5123C49.2294 45.2493 49.3523 44.9262 49.3523 44.5431C49.3523 44.3715 49.3237 44.2143 49.2666 44.0713C49.2094 43.9227 49.1236 43.7911 49.0092 43.6768C48.9006 43.5624 48.7576 43.4595 48.5804 43.368C48.4088 43.2708 48.2087 43.1879 47.98 43.1193L44.7893 42.1758C44.5148 42.0957 44.2175 41.9899 43.8972 41.8584C43.5827 41.7212 43.2825 41.5353 42.9966 41.3009C42.7164 41.0607 42.4849 40.7577 42.3019 40.3917C42.1246 40.02 42.036 39.5626 42.036 39.0194C42.036 38.2246 42.2361 37.5584 42.6364 37.0209C43.0424 36.4777 43.5856 36.0717 44.2661 35.8029C44.9522 35.5342 45.7127 35.4027 46.5476 35.4084C47.3939 35.4141 48.1487 35.5599 48.812 35.8458C49.4753 36.126 50.0299 36.5349 50.4759 37.0724C50.9219 37.6099 51.2364 38.2589 51.4194 39.0194L49.1979 39.4053C49.1064 38.9708 48.9292 38.602 48.6661 38.2989C48.4088 37.9901 48.0915 37.7557 47.7141 37.5956C47.3424 37.4355 46.945 37.3497 46.5219 37.3382C46.1101 37.3325 45.727 37.3954 45.3725 37.5269C45.0237 37.6527 44.7407 37.8357 44.5234 38.0759C44.3118 38.316 44.206 38.5962 44.206 38.9164C44.206 39.2195 44.2975 39.4682 44.4805 39.6627C44.6635 39.8514 44.8893 40.0029 45.1581 40.1173C45.4326 40.2259 45.7099 40.3174 45.9901 40.3917L48.203 41.0093C48.506 41.0893 48.8463 41.198 49.2237 41.3352C49.6011 41.4724 49.9642 41.664 50.313 41.9099C50.6618 42.1558 50.9477 42.4788 51.1707 42.8791C51.3994 43.2794 51.5138 43.7883 51.5138 44.4058C51.5138 45.0463 51.3794 45.6095 51.1106 46.0955C50.8476 46.5759 50.4902 46.9761 50.0385 47.2964C49.5868 47.6166 49.0693 47.8567 48.486 48.0168C47.9085 48.1769 47.3024 48.257 46.6677 48.257Z" fill="#EF7F2F"/>
<path d="M29.2681 47.9996V35.6484H31.3609L37.0905 44.3543V35.6484H39.1833V47.9996H37.0905L31.3609 39.2937V47.9996H29.2681Z" fill="#EF7F2F"/>
<path d="M21.1279 48.2574C19.8928 48.2574 18.835 47.9886 17.9544 47.4511C17.0738 46.9079 16.3962 46.1531 15.9216 45.1867C15.4527 44.2204 15.2183 43.0996 15.2183 41.8245C15.2183 40.5493 15.4527 39.4286 15.9216 38.4622C16.3962 37.4959 17.0738 36.7439 17.9544 36.2064C18.835 35.6632 19.8928 35.3916 21.1279 35.3916C22.3631 35.3916 23.4209 35.6632 24.3015 36.2064C25.1878 36.7439 25.8654 37.4959 26.3343 38.4622C26.8089 39.4286 27.0462 40.5493 27.0462 41.8245C27.0462 43.0996 26.8089 44.2204 26.3343 45.1867C25.8654 46.1531 25.1878 46.9079 24.3015 47.4511C23.4209 47.9886 22.3631 48.2574 21.1279 48.2574ZM21.1279 46.3104C21.9571 46.3161 22.6461 46.1331 23.195 45.7614C23.7497 45.3897 24.1643 44.8665 24.4387 44.1918C24.7189 43.5171 24.859 42.728 24.859 41.8245C24.859 40.921 24.7189 40.1376 24.4387 39.4743C24.1643 38.8053 23.7497 38.285 23.195 37.9133C22.6461 37.5416 21.9571 37.3501 21.1279 37.3386C20.2988 37.3329 19.6098 37.5159 19.0608 37.8876C18.5119 38.2592 18.0973 38.7824 17.8171 39.4572C17.5427 40.1319 17.4054 40.921 17.4054 41.8245C17.4054 42.728 17.5427 43.5142 17.8171 44.1832C18.0916 44.8465 18.5033 45.364 19.0523 45.7357C19.6069 46.1074 20.2988 46.2989 21.1279 46.3104Z" fill="#EF7F2F"/>
<path d="M7.94874 48.2574C6.71363 48.2574 5.65577 47.9886 4.77518 47.4511C3.89459 46.9079 3.217 46.1531 2.74239 45.1867C2.27351 44.2204 2.03906 43.0996 2.03906 41.8245C2.03906 40.5493 2.27351 39.4286 2.74239 38.4622C3.217 37.4959 3.89459 36.7439 4.77518 36.2064C5.65577 35.6632 6.71363 35.3916 7.94874 35.3916C9.37255 35.3916 10.5591 35.749 11.5083 36.4637C12.4575 37.1728 13.1236 38.1306 13.5068 39.3371L11.4225 39.9118C11.1823 39.1055 10.7735 38.4765 10.196 38.0248C9.61843 37.5673 8.86936 37.3386 7.94874 37.3386C7.11961 37.3386 6.42772 37.5245 5.87306 37.8961C5.32412 38.2678 4.90956 38.791 4.62937 39.4658C4.3549 40.1348 4.21481 40.921 4.20909 41.8245C4.20909 42.728 4.34632 43.5171 4.62079 44.1918C4.90098 44.8608 5.3184 45.3812 5.87306 45.7528C6.42772 46.1245 7.11961 46.3104 7.94874 46.3104C8.86936 46.3104 9.61843 46.0816 10.196 45.6242C10.7735 45.1667 11.1823 44.5377 11.4225 43.7372L13.5068 44.3119C13.1236 45.5184 12.4575 46.479 11.5083 47.1938C10.5591 47.9028 9.37255 48.2574 7.94874 48.2574Z" fill="#EF7F2F"/>
</svg>
