<svg width="754.884766" height="69.265625" viewBox="0 0 754.885 69.2656" fill="none" xmlns="http://www.w3.org/2000/svg" xmlns:xlink="http://www.w3.org/1999/xlink">
	<path id="Vector" d="M221.188 60.6963L240.027 17.5977L254.312 17.5977L273.152 60.6963L258.129 60.6963L244.215 24.4932L249.879 24.4932L235.965 60.6963L221.188 60.6963ZM232.393 53.1846L236.088 42.7178L255.912 42.7178L259.607 53.1846L232.393 53.1846Z" fill="#EF7F2F" fill-opacity="1.000000" fill-rule="nonzero"/>
	<path id="Vector" d="M175.602 60.6963L175.602 17.5977L196.844 17.5977C201.646 17.5977 205.873 18.4805 209.527 20.2451C213.18 21.9688 216.033 24.4316 218.084 27.6338C220.137 30.835 221.164 34.6523 221.164 39.0859C221.164 43.5596 220.137 47.418 218.084 50.6602C216.033 53.8623 213.18 56.3457 209.527 58.1104C205.873 59.834 201.646 60.6963 196.844 60.6963L175.602 60.6963ZM190.133 49.3672L196.227 49.3672C198.279 49.3672 200.064 48.9775 201.584 48.1982C203.145 47.418 204.355 46.2686 205.217 44.75C206.078 43.1904 206.51 41.3018 206.51 39.0859C206.51 36.9102 206.078 35.0625 205.217 33.5439C204.355 32.0254 203.145 30.876 201.584 30.0967C200.064 29.3164 198.279 28.9268 196.227 28.9268L190.133 28.9268L190.133 49.3672Z" fill="#EF7F2F" fill-opacity="1.000000" fill-rule="nonzero"/>
	<path id="Vector" d="M121.316 60.6963L140.156 17.5977L154.441 17.5977L173.281 60.6963L158.258 60.6963L144.344 24.4932L150.008 24.4932L136.094 60.6963L121.316 60.6963ZM132.521 53.1846L136.217 42.7178L156.041 42.7178L159.736 53.1846L132.521 53.1846Z" fill="#EF7F2F" fill-opacity="1.000000" fill-rule="nonzero"/>
	<path id="Vector" d="M94.0723 51.4609L93.2734 35.5146L109.527 17.5977L125.352 17.5977L107.127 37.6689L99.0605 45.9199L94.0723 51.4609ZM81.082 60.6963L81.082 17.5977L95.3652 17.5977L95.3652 60.6963L81.082 60.6963ZM109.404 60.6963L96.7207 43.9492L106.141 33.9756L126.213 60.6963L109.404 60.6963Z" fill="#EF7F2F" fill-opacity="1.000000" fill-rule="nonzero"/>
	<path id="Vector" d="M721.521 60.6211L721.521 19.0615L728.564 19.0615L747.842 48.3555L747.842 19.0615L754.885 19.0615L754.885 60.6211L747.842 60.6211L728.564 31.3271L728.564 60.6211L721.521 60.6211Z" fill="#212738" fill-opacity="1.000000" fill-rule="nonzero"/>
	<path id="Vector" d="M694.131 61.4863C689.975 61.4863 686.416 60.582 683.453 58.7734C680.49 56.9453 678.209 54.4062 676.613 51.1543C675.035 47.9023 674.246 44.1318 674.246 39.8408C674.246 35.5498 675.035 31.7793 676.613 28.5273C678.209 25.2754 680.49 22.7461 683.453 20.9375C686.416 19.1094 689.975 18.1953 694.131 18.1953C698.287 18.1953 701.846 19.1094 704.811 20.9375C707.791 22.7461 710.072 25.2754 711.65 28.5273C713.246 31.7793 714.045 35.5498 714.045 39.8408C714.045 44.1318 713.246 47.9023 711.65 51.1543C710.072 54.4062 707.791 56.9453 704.811 58.7734C701.846 60.582 698.287 61.4863 694.131 61.4863ZM694.131 54.9355C696.922 54.9541 699.24 54.3389 701.086 53.0879C702.953 51.8369 704.348 50.0771 705.271 47.8066C706.215 45.5361 706.686 42.8809 706.686 39.8408C706.686 36.8008 706.215 34.165 705.271 31.9326C704.348 29.6816 702.953 27.9307 701.086 26.6807C699.24 25.4297 696.922 24.7852 694.131 24.7471C691.342 24.7275 689.023 25.3428 687.176 26.5938C685.328 27.8447 683.934 29.6045 682.99 31.875C682.066 34.1455 681.605 36.8008 681.605 39.8408C681.605 42.8809 682.066 45.5264 682.99 47.7773C683.914 50.0098 685.299 51.751 687.146 53.001C689.014 54.252 691.342 54.8965 694.131 54.9355Z" fill="#212738" fill-opacity="1.000000" fill-rule="nonzero"/>
	<path id="Vector" d="M659.223 60.6211L659.223 19.0615L666.178 19.0615L666.178 60.6211L659.223 60.6211Z" fill="#212738" fill-opacity="1.000000" fill-rule="nonzero"/>
	<path id="Vector" d="M631.895 60.6211L631.895 25.584L618.445 25.584L618.445 19.0615L652.299 19.0615L652.299 25.584L638.85 25.584L638.85 60.6211L631.895 60.6211Z" fill="#212738" fill-opacity="1.000000" fill-rule="nonzero"/>
	<path id="Vector" d="M595.139 61.4863C590.982 61.4863 587.424 60.582 584.461 58.7734C581.498 56.9453 579.217 54.4062 577.621 51.1543C576.043 47.9023 575.254 44.1318 575.254 39.8408C575.254 35.5498 576.043 31.7793 577.621 28.5273C579.217 25.2754 581.498 22.7461 584.461 20.9375C587.424 19.1094 590.982 18.1953 595.139 18.1953C599.93 18.1953 603.922 19.3975 607.115 21.8027C610.311 24.1885 612.551 27.4111 613.84 31.4717L606.828 33.4053C606.02 30.6924 604.645 28.5752 602.701 27.0557C600.758 25.5166 598.236 24.7471 595.139 24.7471C592.35 24.7471 590.021 25.3721 588.154 26.623C586.307 27.873 584.912 29.6338 583.971 31.9043C583.047 34.1553 582.574 36.8008 582.555 39.8408C582.555 42.8809 583.018 45.5361 583.941 47.8066C584.883 50.0576 586.289 51.8086 588.154 53.0596C590.021 54.3096 592.35 54.9355 595.139 54.9355C598.236 54.9355 600.758 54.165 602.701 52.626C604.645 51.0869 606.02 48.9707 606.828 46.2764L613.84 48.2109C612.551 52.2705 610.311 55.5029 607.115 57.9082C603.922 60.2939 599.93 61.4863 595.139 61.4863Z" fill="#212738" fill-opacity="1.000000" fill-rule="nonzero"/>
	<path id="Vector" d="M551.025 61.4873C547.717 61.4873 544.803 60.8135 542.281 59.4668C539.781 58.1201 537.818 56.2246 536.395 53.7812C534.99 51.3379 534.287 48.4707 534.287 45.1807L534.287 19.1191L541.33 19.0615L541.33 45.0078C541.33 46.5654 541.59 47.9609 542.107 49.1924C542.646 50.4238 543.369 51.4717 544.273 52.3379C545.178 53.1846 546.217 53.8291 547.391 54.2715C548.564 54.7139 549.775 54.9355 551.025 54.9355C552.316 54.9355 553.537 54.7139 554.691 54.2715C555.865 53.8096 556.904 53.1553 557.809 52.3096C558.713 51.4434 559.426 50.3945 559.943 49.1631C560.463 47.9316 560.723 46.5469 560.723 45.0078L560.723 19.0615L567.766 19.0615L567.766 45.1807C567.766 48.4707 567.053 51.3379 565.631 53.7812C564.225 56.2246 562.264 58.1201 559.742 59.4668C557.24 60.8135 554.336 61.4873 551.025 61.4873Z" fill="#212738" fill-opacity="1.000000" fill-rule="nonzero"/>
	<path id="Vector" d="M494.451 60.6211L494.451 19.0615L511.623 19.0615C512.027 19.0615 512.547 19.0811 513.182 19.1191C513.816 19.1387 514.404 19.1963 514.941 19.292C517.348 19.6582 519.33 20.4561 520.887 21.6875C522.465 22.9189 523.629 24.4775 524.379 26.3633C525.148 28.2295 525.535 30.3076 525.535 32.5977C525.535 35.9834 524.678 38.8984 522.965 41.3418C521.254 43.7666 518.627 45.2676 515.086 45.8447L512.113 46.1045L501.406 46.1045L501.406 60.6211L494.451 60.6211ZM518.318 60.6211L510.123 43.709L517.193 42.1504L526.197 60.6211L518.318 60.6211ZM501.406 39.6104L511.334 39.6104C511.719 39.6104 512.152 39.5908 512.633 39.5527C513.115 39.5146 513.557 39.4375 513.961 39.3223C515.115 39.0332 516.02 38.5234 516.674 37.792C517.348 37.0605 517.818 36.2334 518.088 35.3105C518.377 34.3867 518.521 33.4824 518.521 32.5977C518.521 31.7119 518.377 30.8076 518.088 29.8848C517.818 28.9414 517.348 28.1045 516.674 27.373C516.02 26.6426 515.115 26.1328 513.961 25.8438C513.557 25.7285 513.115 25.6611 512.633 25.6416C512.152 25.6035 511.719 25.584 511.334 25.584L501.406 25.584L501.406 39.6104Z" fill="#212738" fill-opacity="1.000000" fill-rule="nonzero"/>
	<path id="Vector" d="M467.699 60.6211L467.699 25.584L454.25 25.584L454.25 19.0615L488.104 19.0615L488.104 25.584L474.654 25.584L474.654 60.6211L467.699 60.6211Z" fill="#212738" fill-opacity="1.000000" fill-rule="nonzero"/>
	<path id="Vector" d="M433.43 61.4863C430.389 61.4863 427.648 60.957 425.205 59.8984C422.779 58.8408 420.779 57.3301 419.201 55.3672C417.643 53.3857 416.652 51.0381 416.229 48.3252L423.443 47.2285C424.059 49.6914 425.32 51.5967 427.225 52.9434C429.148 54.29 431.361 54.9639 433.863 54.9639C435.344 54.9639 436.738 54.7324 438.047 54.2705C439.355 53.8086 440.414 53.1357 441.223 52.251C442.049 51.3652 442.463 50.2783 442.463 48.9893C442.463 48.4121 442.367 47.8828 442.174 47.4023C441.982 46.9014 441.693 46.459 441.309 46.0742C440.943 45.6895 440.463 45.3428 439.865 45.0352C439.289 44.708 438.615 44.4297 437.846 44.1982L427.109 41.0234C426.186 40.7539 425.186 40.3984 424.107 39.9561C423.049 39.4941 422.039 38.8691 421.076 38.0801C420.135 37.2715 419.355 36.252 418.74 35.0205C418.143 33.7705 417.844 32.2305 417.844 30.4033C417.844 27.7285 418.518 25.4873 419.865 23.6787C421.23 21.8506 423.059 20.4844 425.348 19.5801C427.658 18.6758 430.217 18.2334 433.025 18.2529C435.873 18.2715 438.412 18.7627 440.645 19.7246C442.877 20.667 444.742 22.043 446.244 23.8516C447.744 25.6602 448.803 27.8438 449.418 30.4033L441.943 31.7021C441.635 30.2393 441.039 28.998 440.154 27.9785C439.289 26.9395 438.221 26.1504 436.951 25.6123C435.699 25.0732 434.363 24.7852 432.939 24.7461C431.553 24.7266 430.264 24.9385 429.072 25.3809C427.898 25.8047 426.945 26.4199 426.215 27.2285C425.502 28.0361 425.146 28.9795 425.146 30.0566C425.146 31.0762 425.455 31.9131 426.07 32.5674C426.686 33.2021 427.445 33.7119 428.35 34.0967C429.273 34.4629 430.207 34.7705 431.15 35.0205L438.596 37.0986C439.615 37.3682 440.76 37.7334 442.029 38.1953C443.301 38.6572 444.521 39.3018 445.695 40.1289C446.869 40.9561 447.832 42.043 448.582 43.3906C449.352 44.7373 449.736 46.4492 449.736 48.5273C449.736 50.6826 449.283 52.5771 448.379 54.2129C447.494 55.8291 446.291 57.1758 444.771 58.2539C443.252 59.3311 441.51 60.1387 439.549 60.6777C437.605 61.2168 435.564 61.4863 433.43 61.4863Z" fill="#212738" fill-opacity="1.000000" fill-rule="nonzero"/>
	<path id="Vector" d="M374.883 60.6211L374.883 19.0615L381.926 19.0615L401.203 48.3555L401.203 19.0615L408.246 19.0615L408.246 60.6211L401.203 60.6211L381.926 31.3271L381.926 60.6211L374.883 60.6211Z" fill="#212738" fill-opacity="1.000000" fill-rule="nonzero"/>
	<path id="Vector" d="M347.492 61.4863C343.336 61.4863 339.777 60.582 336.814 58.7734C333.852 56.9453 331.57 54.4062 329.975 51.1543C328.396 47.9023 327.607 44.1318 327.607 39.8408C327.607 35.5498 328.396 31.7793 329.975 28.5273C331.57 25.2754 333.852 22.7461 336.814 20.9375C339.777 19.1094 343.336 18.1953 347.492 18.1953C351.648 18.1953 355.207 19.1094 358.172 20.9375C361.152 22.7461 363.434 25.2754 365.012 28.5273C366.607 31.7793 367.406 35.5498 367.406 39.8408C367.406 44.1318 366.607 47.9023 365.012 51.1543C363.434 54.4062 361.152 56.9453 358.172 58.7734C355.207 60.582 351.648 61.4863 347.492 61.4863ZM347.492 54.9355C350.283 54.9541 352.602 54.3389 354.447 53.0879C356.314 51.8369 357.709 50.0771 358.633 47.8066C359.576 45.5361 360.047 42.8809 360.047 39.8408C360.047 36.8008 359.576 34.165 358.633 31.9326C357.709 29.6816 356.314 27.9307 354.447 26.6807C352.602 25.4297 350.283 24.7852 347.492 24.7471C344.703 24.7275 342.385 25.3428 340.537 26.5938C338.689 27.8447 337.295 29.6045 336.352 31.875C335.428 34.1455 334.967 36.8008 334.967 39.8408C334.967 42.8809 335.428 45.5264 336.352 47.7773C337.275 50.0098 338.66 51.751 340.508 53.001C342.375 54.252 344.703 54.8965 347.492 54.9355Z" fill="#212738" fill-opacity="1.000000" fill-rule="nonzero"/>
	<path id="Vector" d="M303.146 61.4863C298.99 61.4863 295.432 60.582 292.469 58.7734C289.506 56.9453 287.225 54.4062 285.629 51.1543C284.051 47.9023 283.262 44.1318 283.262 39.8408C283.262 35.5498 284.051 31.7793 285.629 28.5273C287.225 25.2754 289.506 22.7461 292.469 20.9375C295.432 19.1094 298.99 18.1953 303.146 18.1953C307.938 18.1953 311.93 19.3975 315.123 21.8027C318.318 24.1885 320.559 27.4111 321.848 31.4717L314.836 33.4053C314.027 30.6924 312.652 28.5752 310.709 27.0557C308.766 25.5166 306.244 24.7471 303.146 24.7471C300.357 24.7471 298.029 25.3721 296.162 26.623C294.314 27.873 292.92 29.6338 291.979 31.9043C291.055 34.1553 290.582 36.8008 290.564 39.8408C290.564 42.8809 291.025 45.5361 291.949 47.8066C292.891 50.0576 294.297 51.8086 296.162 53.0596C298.029 54.3096 300.357 54.9355 303.146 54.9355C306.244 54.9355 308.766 54.165 310.709 52.626C312.652 51.0869 314.027 48.9707 314.836 46.2764L321.848 48.2109C320.559 52.2705 318.318 55.5029 315.123 57.9082C311.93 60.2939 307.938 61.4863 303.146 61.4863Z" fill="#212738" fill-opacity="1.000000" fill-rule="nonzero"/>
	<path id="Union" d="M42.5898 10.585C36.0273 4.16797 25.3867 4.16797 18.8223 10.585L33.4355 24.8721L4.83203 52.8379C3.51953 54.1211 3.51953 56.2012 4.83203 57.4844L11.9629 64.4551C13.2754 65.7393 15.4023 65.7393 16.7148 64.4551L45.3203 36.4902L54.4727 45.4395C55.7852 46.7227 57.9141 46.7227 59.2266 45.4395L66.3574 38.4678C67.6699 37.1846 67.6699 35.1045 66.3574 33.8213L42.5898 10.585Z" fill="#212738" fill-opacity="1.000000" fill-rule="evenodd"/>
</svg>
