<svg width="184" height="125" viewBox="0 0 184 125" fill="none" xmlns="http://www.w3.org/2000/svg">
<g filter="url(#filter0_d_825_1620)">
<path d="M112.131 80.5L91.5 116.005L70.8688 80.5L112.131 80.5Z" fill="#2CAE39" stroke="#2CAE39"/>
<rect x="8.5" y="8.5" width="167" height="75" rx="11.5" fill="#2CAE39"/>
<rect x="8.5" y="8.5" width="167" height="75" rx="11.5" stroke="#2CAE39"/>
<path d="M136.398 47.4L146.19 25H153.614L163.406 47.4H155.598L148.366 28.584H151.31L144.078 47.4H136.398ZM142.222 43.496L144.142 38.056H154.446L156.366 43.496H142.222Z" fill="#EDF2EF"/>
<path d="M112.398 47.4V25H123.438C125.934 25 128.132 25.4587 130.03 26.376C131.929 27.272 133.412 28.552 134.478 30.216C135.545 31.88 136.078 33.864 136.078 36.168C136.078 38.4933 135.545 40.4987 134.478 42.184C133.412 43.848 131.929 45.1387 130.03 46.056C128.132 46.952 125.934 47.4 123.438 47.4H112.398ZM119.95 41.512H123.118C124.185 41.512 125.113 41.3093 125.902 40.904C126.713 40.4987 127.342 39.9013 127.79 39.112C128.238 38.3013 128.462 37.32 128.462 36.168C128.462 35.0373 128.238 34.0773 127.79 33.288C127.342 32.4987 126.713 31.9013 125.902 31.496C125.113 31.0907 124.185 30.888 123.118 30.888H119.95V41.512Z" fill="#EDF2EF"/>
<path d="M83.3984 47.4L93.1904 25H100.614L110.406 47.4H102.598L95.3664 28.584H98.3104L91.0784 47.4H83.3984ZM89.2224 43.496L91.1424 38.056H101.446L103.366 43.496H89.2224Z" fill="#EDF2EF"/>
<path d="M65.1504 42.6L64.7344 34.312L73.1824 25H81.4064L71.9344 35.432L67.7424 39.72L65.1504 42.6ZM58.3984 47.4V25H65.8224V47.4H58.3984ZM73.1184 47.4L66.5264 38.696L71.4224 33.512L81.8544 47.4H73.1184Z" fill="#EDF2EF"/>
<path fill-rule="evenodd" clip-rule="evenodd" d="M40.9361 23.1784C37.9651 20.2739 33.1483 20.2739 30.1774 23.1784L36.7926 29.6458L23.8441 42.3051C23.2499 42.886 23.2499 43.8279 23.8441 44.4088L27.0717 47.5643C27.6659 48.1452 28.6292 48.1452 29.2234 47.5643L42.1719 34.905L46.3154 38.956C46.9096 39.5369 47.8729 39.5369 48.4671 38.956L51.6947 35.8005C52.2889 35.2196 52.2889 34.2777 51.6947 33.6968L40.9361 23.1784Z" fill="#EDF2EF"/>
<path d="M152.286 67.9996V55.6484H154.379L160.109 64.3543V55.6484H162.201V67.9996H160.109L154.379 59.2937V67.9996H152.286Z" fill="#EDF2EF"/>
<path d="M144.146 68.2574C142.911 68.2574 141.853 67.9886 140.972 67.4511C140.092 66.9079 139.414 66.1531 138.94 65.1867C138.471 64.2204 138.236 63.0996 138.236 61.8245C138.236 60.5493 138.471 59.4286 138.94 58.4622C139.414 57.4959 140.092 56.7439 140.972 56.2064C141.853 55.6632 142.911 55.3916 144.146 55.3916C145.381 55.3916 146.439 55.6632 147.32 56.2064C148.206 56.7439 148.883 57.4959 149.352 58.4622C149.827 59.4286 150.064 60.5493 150.064 61.8245C150.064 63.0996 149.827 64.2204 149.352 65.1867C148.883 66.1531 148.206 66.9079 147.32 67.4511C146.439 67.9886 145.381 68.2574 144.146 68.2574ZM144.146 66.3104C144.975 66.3161 145.664 66.1331 146.213 65.7614C146.768 65.3897 147.182 64.8665 147.457 64.1918C147.737 63.5171 147.877 62.728 147.877 61.8245C147.877 60.921 147.737 60.1376 147.457 59.4743C147.182 58.8053 146.768 58.285 146.213 57.9133C145.664 57.5416 144.975 57.3501 144.146 57.3386C143.317 57.3329 142.628 57.5159 142.079 57.8876C141.53 58.2592 141.115 58.7824 140.835 59.4572C140.561 60.1319 140.424 60.921 140.424 61.8245C140.424 62.728 140.561 63.5142 140.835 64.1832C141.11 64.8465 141.521 65.364 142.07 65.7357C142.625 66.1074 143.317 66.2989 144.146 66.3104Z" fill="#EDF2EF"/>
<path d="M133.771 67.9996V55.6484H135.839V67.9996H133.771Z" fill="#EDF2EF"/>
<path d="M125.65 67.9996V57.5869H121.653V55.6484H131.714V57.5869H127.717V67.9996H125.65Z" fill="#EDF2EF"/>
<path d="M114.726 68.2574C113.491 68.2574 112.433 67.9886 111.553 67.4511C110.672 66.9079 109.994 66.1531 109.52 65.1867C109.051 64.2204 108.816 63.0996 108.816 61.8245C108.816 60.5493 109.051 59.4286 109.52 58.4622C109.994 57.4959 110.672 56.7439 111.553 56.2064C112.433 55.6632 113.491 55.3916 114.726 55.3916C116.15 55.3916 117.336 55.749 118.286 56.4637C119.235 57.1728 119.901 58.1306 120.284 59.3371L118.2 59.9118C117.96 59.1055 117.551 58.4765 116.973 58.0248C116.396 57.5673 115.647 57.3386 114.726 57.3386C113.897 57.3386 113.205 57.5245 112.65 57.8961C112.101 58.2678 111.687 58.791 111.407 59.4658C111.132 60.1348 110.992 60.921 110.986 61.8245C110.986 62.728 111.124 63.5171 111.398 64.1918C111.678 64.8608 112.096 65.3812 112.65 65.7528C113.205 66.1245 113.897 66.3104 114.726 66.3104C115.647 66.3104 116.396 66.0816 116.973 65.6242C117.551 65.1667 117.96 64.5377 118.2 63.7372L120.284 64.3119C119.901 65.5184 119.235 66.479 118.286 67.1938C117.336 67.9028 116.15 68.2574 114.726 68.2574Z" fill="#EDF2EF"/>
<path d="M101.616 68.2569C100.633 68.2569 99.7666 68.0568 99.0175 67.6565C98.2741 67.2562 97.6909 66.693 97.2677 65.9668C96.8503 65.2406 96.6416 64.3886 96.6416 63.4108V55.6656L98.7344 55.6484V63.3593C98.7344 63.8225 98.8116 64.2371 98.966 64.603C99.1261 64.969 99.3406 65.2806 99.6093 65.5379C99.8781 65.7895 100.187 65.9811 100.536 66.1126C100.884 66.2441 101.245 66.3099 101.616 66.3099C101.999 66.3099 102.363 66.2441 102.706 66.1126C103.054 65.9754 103.363 65.7809 103.632 65.5294C103.901 65.272 104.112 64.9604 104.267 64.5944C104.421 64.2285 104.498 63.8168 104.498 63.3593V55.6484H106.591V63.4108C106.591 64.3886 106.38 65.2406 105.956 65.9668C105.539 66.693 104.956 67.2562 104.207 67.6565C103.463 68.0568 102.6 68.2569 101.616 68.2569Z" fill="#EDF2EF"/>
<path d="M84.8027 67.9996V55.6484H89.9062C90.0262 55.6484 90.1806 55.6542 90.3693 55.6656C90.558 55.6713 90.7324 55.6885 90.8925 55.7171C91.6073 55.8257 92.1963 56.063 92.6594 56.429C93.1283 56.7949 93.4743 57.2581 93.6973 57.8185C93.926 58.3731 94.0404 58.9907 94.0404 59.6711C94.0404 60.6775 93.7859 61.5438 93.277 62.27C92.7681 62.9905 91.9876 63.4365 90.9354 63.6081L90.052 63.6853H86.8698V67.9996H84.8027ZM91.8961 67.9996L89.4601 62.9734L91.5616 62.5102L94.2376 67.9996H91.8961ZM86.8698 61.7554H89.8204C89.9348 61.7554 90.0634 61.7497 90.2064 61.7382C90.3493 61.7268 90.4808 61.7039 90.6009 61.6696C90.944 61.5838 91.2127 61.4323 91.4072 61.215C91.6073 60.9977 91.7474 60.7519 91.8274 60.4774C91.9132 60.2029 91.9561 59.9342 91.9561 59.6711C91.9561 59.4081 91.9132 59.1394 91.8274 58.8649C91.7474 58.5847 91.6073 58.336 91.4072 58.1187C91.2127 57.9014 90.944 57.7498 90.6009 57.6641C90.4808 57.6298 90.3493 57.6098 90.2064 57.604C90.0634 57.5926 89.9348 57.5869 89.8204 57.5869H86.8698V61.7554Z" fill="#EDF2EF"/>
<path d="M76.8524 67.9996V57.5869H72.8555V55.6484H82.9165V57.5869H78.9195V67.9996H76.8524Z" fill="#EDF2EF"/>
<path d="M66.6677 68.257C65.7642 68.257 64.9494 68.0998 64.2232 67.7853C63.5027 67.4708 62.908 67.0219 62.4391 66.4386C61.9759 65.8497 61.6815 65.1521 61.5557 64.3458L63.7 64.0199C63.8829 64.7518 64.2575 65.3179 64.8236 65.7182C65.3954 66.1184 66.053 66.3186 66.7963 66.3186C67.2366 66.3186 67.6512 66.2499 68.04 66.1127C68.4288 65.9755 68.7433 65.7753 68.9835 65.5123C69.2294 65.2493 69.3523 64.9262 69.3523 64.5431C69.3523 64.3715 69.3237 64.2143 69.2666 64.0713C69.2094 63.9227 69.1236 63.7911 69.0092 63.6768C68.9006 63.5624 68.7576 63.4595 68.5804 63.368C68.4088 63.2708 68.2087 63.1879 67.98 63.1193L64.7893 62.1758C64.5148 62.0957 64.2175 61.9899 63.8972 61.8584C63.5827 61.7212 63.2825 61.5353 62.9966 61.3009C62.7164 61.0607 62.4849 60.7577 62.3019 60.3917C62.1246 60.02 62.036 59.5626 62.036 59.0194C62.036 58.2246 62.2361 57.5584 62.6364 57.0209C63.0424 56.4777 63.5856 56.0717 64.2661 55.8029C64.9522 55.5342 65.7127 55.4027 66.5476 55.4084C67.3939 55.4141 68.1487 55.5599 68.812 55.8458C69.4753 56.126 70.0299 56.5349 70.4759 57.0724C70.9219 57.6099 71.2364 58.2589 71.4194 59.0194L69.1979 59.4053C69.1064 58.9708 68.9292 58.602 68.6661 58.2989C68.4088 57.9901 68.0915 57.7557 67.7141 57.5956C67.3424 57.4355 66.945 57.3497 66.5219 57.3382C66.1101 57.3325 65.727 57.3954 65.3725 57.5269C65.0237 57.6527 64.7407 57.8357 64.5234 58.0759C64.3118 58.316 64.206 58.5962 64.206 58.9164C64.206 59.2195 64.2975 59.4682 64.4805 59.6627C64.6635 59.8514 64.8893 60.0029 65.1581 60.1173C65.4326 60.2259 65.7099 60.3174 65.9901 60.3917L68.203 61.0093C68.506 61.0893 68.8463 61.198 69.2237 61.3352C69.6011 61.4724 69.9642 61.664 70.313 61.9099C70.6618 62.1558 70.9477 62.4788 71.1707 62.8791C71.3994 63.2794 71.5138 63.7883 71.5138 64.4058C71.5138 65.0463 71.3794 65.6095 71.1106 66.0955C70.8476 66.5759 70.4902 66.9761 70.0385 67.2964C69.5868 67.6166 69.0693 67.8567 68.486 68.0168C67.9085 68.1769 67.3024 68.257 66.6677 68.257Z" fill="#EDF2EF"/>
<path d="M49.2686 67.9996V55.6484H51.3614L57.0909 64.3543V55.6484H59.1838V67.9996H57.0909L51.3614 59.2937V67.9996H49.2686Z" fill="#EDF2EF"/>
<path d="M41.1284 68.2574C39.8933 68.2574 38.8355 67.9886 37.9549 67.4511C37.0743 66.9079 36.3967 66.1531 35.9221 65.1867C35.4532 64.2204 35.2188 63.0996 35.2188 61.8245C35.2188 60.5493 35.4532 59.4286 35.9221 58.4622C36.3967 57.4959 37.0743 56.7439 37.9549 56.2064C38.8355 55.6632 39.8933 55.3916 41.1284 55.3916C42.3635 55.3916 43.4214 55.6632 44.302 56.2064C45.1883 56.7439 45.8659 57.4959 46.3348 58.4622C46.8094 59.4286 47.0467 60.5493 47.0467 61.8245C47.0467 63.0996 46.8094 64.2204 46.3348 65.1867C45.8659 66.1531 45.1883 66.9079 44.302 67.4511C43.4214 67.9886 42.3635 68.2574 41.1284 68.2574ZM41.1284 66.3104C41.9576 66.3161 42.6466 66.1331 43.1955 65.7614C43.7502 65.3897 44.1648 64.8665 44.4392 64.1918C44.7194 63.5171 44.8595 62.728 44.8595 61.8245C44.8595 60.921 44.7194 60.1376 44.4392 59.4743C44.1648 58.8053 43.7502 58.285 43.1955 57.9133C42.6466 57.5416 41.9576 57.3501 41.1284 57.3386C40.2993 57.3329 39.6103 57.5159 39.0613 57.8876C38.5124 58.2592 38.0978 58.7824 37.8176 59.4572C37.5432 60.1319 37.4059 60.921 37.4059 61.8245C37.4059 62.728 37.5432 63.5142 37.8176 64.1832C38.0921 64.8465 38.5038 65.364 39.0527 65.7357C39.6074 66.1074 40.2993 66.2989 41.1284 66.3104Z" fill="#EDF2EF"/>
<path d="M27.9487 68.2574C26.7136 68.2574 25.6558 67.9886 24.7752 67.4511C23.8946 66.9079 23.217 66.1531 22.7424 65.1867C22.2735 64.2204 22.0391 63.0996 22.0391 61.8245C22.0391 60.5493 22.2735 59.4286 22.7424 58.4622C23.217 57.4959 23.8946 56.7439 24.7752 56.2064C25.6558 55.6632 26.7136 55.3916 27.9487 55.3916C29.3726 55.3916 30.5591 55.749 31.5083 56.4637C32.4575 57.1728 33.1236 58.1306 33.5068 59.3371L31.4225 59.9118C31.1823 59.1055 30.7735 58.4765 30.196 58.0248C29.6184 57.5673 28.8694 57.3386 27.9487 57.3386C27.1196 57.3386 26.4277 57.5245 25.8731 57.8961C25.3241 58.2678 24.9096 58.791 24.6294 59.4658C24.3549 60.1348 24.2148 60.921 24.2091 61.8245C24.2091 62.728 24.3463 63.5171 24.6208 64.1918C24.901 64.8608 25.3184 65.3812 25.8731 65.7528C26.4277 66.1245 27.1196 66.3104 27.9487 66.3104C28.8694 66.3104 29.6184 66.0816 30.196 65.6242C30.7735 65.1667 31.1823 64.5377 31.4225 63.7372L33.5068 64.3119C33.1236 65.5184 32.4575 66.479 31.5083 67.1938C30.5591 67.9028 29.3726 68.2574 27.9487 68.2574Z" fill="#EDF2EF"/>
</g>
<defs>
<filter id="filter0_d_825_1620" x="0" y="0" width="184" height="125" filterUnits="userSpaceOnUse" color-interpolation-filters="sRGB">
<feFlood flood-opacity="0" result="BackgroundImageFix"/>
<feColorMatrix in="SourceAlpha" type="matrix" values="0 0 0 0 0 0 0 0 0 0 0 0 0 0 0 0 0 0 127 0" result="hardAlpha"/>
<feOffset/>
<feGaussianBlur stdDeviation="4"/>
<feComposite in2="hardAlpha" operator="out"/>
<feColorMatrix type="matrix" values="0 0 0 0 0 0 0 0 0 0 0 0 0 0 0 0 0 0 0.45 0"/>
<feBlend mode="normal" in2="BackgroundImageFix" result="effect1_dropShadow_825_1620"/>
<feBlend mode="normal" in="SourceGraphic" in2="effect1_dropShadow_825_1620" result="shape"/>
</filter>
</defs>
</svg>
