<svg width="148" height="148" viewBox="0 0 148 148" fill="none" xmlns="http://www.w3.org/2000/svg">
<path fill-rule="evenodd" clip-rule="evenodd" d="M85.6663 9C87.2576 9 88.7837 9.63214 89.9089 10.7574L114.196 35.0446C115.321 36.1698 115.954 37.696 115.954 39.2873V81.5114H122.853C128.376 81.5114 132.853 85.9885 132.853 91.5114V128.211C132.853 133.734 128.376 138.211 122.853 138.211H86.1535C81.6441 138.211 77.8318 135.226 76.5846 131.125H22C18.6863 131.125 16 128.438 16 125.125V15C16 11.6863 18.6863 9 22 9H85.6663ZM111.954 39.2873V81.5114H86.1535C80.6307 81.5114 76.1535 85.9885 76.1535 91.5114V127.125H22C20.8954 127.125 20 126.229 20 125.125V15C20 13.8954 20.8954 13 22 13H85.6663C86.1967 13 86.7054 13.2107 87.0805 13.5858L111.368 37.873C111.743 38.2481 111.954 38.7568 111.954 39.2873ZM102.503 107.861V85.5114H86.1535C82.8398 85.5114 80.1535 88.1976 80.1535 91.5114V107.861H102.503ZM102.503 111.861H80.1535V128.211C80.1535 131.525 82.8398 134.211 86.1535 134.211H102.503V111.861ZM106.503 134.211V111.861H128.853V128.211C128.853 131.525 126.167 134.211 122.853 134.211H106.503ZM128.853 107.861H106.503V85.5114H122.853C126.167 85.5114 128.853 88.1976 128.853 91.5114V107.861ZM88.6922 94.7767V90.2344H92.6922V94.7767H97.2345V98.7767H92.6922V103.319H88.6922V98.7767H84.1499V94.7767H88.6922ZM111.046 94.7767H124.13V98.7767H111.046V94.7767ZM124.857 120.219H111.046V124.219H124.857V120.219ZM120 117C120 118.105 119.105 119 118 119C116.895 119 116 118.105 116 117C116 115.895 116.895 115 118 115C119.105 115 120 115.895 120 117ZM118 129C119.105 129 120 128.105 120 127C120 125.895 119.105 125 118 125C116.895 125 116 125.895 116 127C116 128.105 116.895 129 118 129ZM91.2212 119.92L94.4331 116.708L97.2615 119.536L94.0496 122.748L97.2615 125.96L94.4331 128.788L91.2212 125.576L88.0093 128.788L85.1809 125.96L88.3928 122.748L85.1809 119.536L88.0093 116.708L91.2212 119.92ZM46.3499 23.9038C46.3499 22.7992 45.4544 21.9038 44.3499 21.9038C43.2453 21.9038 42.3499 22.7992 42.3499 23.9038V37.1692H29.45C28.3454 37.1692 27.45 38.0646 27.45 39.1692C27.45 40.2738 28.3454 41.1692 29.45 41.1692H42.3499L42.3499 66.246H29.45C28.3454 66.246 27.45 67.1415 27.45 68.246C27.45 69.3506 28.3454 70.246 29.45 70.246H42.3499L42.3498 95.3229H29.45C28.3454 95.3229 27.45 96.2183 27.45 97.3229C27.45 98.4274 28.3454 99.3229 29.45 99.3229H42.3498V113.677C42.3498 114.781 43.2453 115.677 44.3498 115.677C45.4544 115.677 46.3498 114.781 46.3498 113.677V99.3229H68.3383C69.4429 99.3229 70.3383 98.4274 70.3383 97.3229C70.3383 96.2183 69.4429 95.3229 68.3383 95.3229H46.3498L46.3499 70.246H87.9652C89.0697 70.246 89.9652 69.3506 89.9652 68.246C89.9652 67.1415 89.0697 66.246 87.9652 66.246H46.3499L46.3499 41.1692H87.9652C89.0697 41.1692 89.9652 40.2738 89.9652 39.1692C89.9652 38.0646 89.0697 37.1692 87.9652 37.1692H46.3499V23.9038Z" fill="#2CAE39"/>
</svg>
