<svg width="148" height="148" viewBox="0 0 148 148" fill="none" xmlns="http://www.w3.org/2000/svg">
<path fill-rule="evenodd" clip-rule="evenodd" d="M78 32C85.732 32 92 25.732 92 18C92 10.268 85.732 4 78 4C70.268 4 64 10.268 64 18C64 25.732 70.268 32 78 32ZM78 36C87.9411 36 96 27.9411 96 18C96 8.05887 87.9411 0 78 0C68.0589 0 60 8.05887 60 18C60 27.9411 68.0589 36 78 36ZM52 22C52 27.5228 47.5229 32 42 32C36.4772 32 32 27.5228 32 22C32 16.4772 36.4772 12 42 12C47.5229 12 52 16.4772 52 22ZM56 22C56 29.732 49.732 36 42 36C34.268 36 28 29.732 28 22C28 14.268 34.268 8 42 8C49.732 8 56 14.268 56 22ZM40.5611 124H81.4389L91.1605 146.785C91.5939 147.801 92.7689 148.273 93.7849 147.84C94.8009 147.406 95.2731 146.231 94.8396 145.215L85.7878 124H108C112.418 124 116 120.418 116 116V98.7895L137.996 111.524C140.662 113.068 144 111.144 144 108.062V55.9378C144 52.8564 140.662 50.9322 137.996 52.4761L116 65.2105V48C116 43.5817 112.418 40 108 40H13C8.58172 40 5 43.5817 5 48V116C5 120.418 8.58172 124 13 124H36.2123L27.1605 145.215C26.727 146.231 27.1992 147.406 28.2151 147.84C29.2311 148.273 30.4061 147.801 30.8396 146.785L40.5611 124ZM140 108.062L116 94.1675V69.8325L140 55.9378V108.062ZM108 44H13C10.7909 44 9 45.7909 9 48V116C9 118.209 10.7909 120 13 120H108C110.209 120 112 118.209 112 116V48C112 45.7909 110.209 44 108 44ZM78.0615 81.5L48.0001 63.9641L48.0001 99.0358L78.0615 81.5ZM80.077 84.9551C82.723 83.4116 82.723 79.5884 80.077 78.0449L50.0156 60.509C47.3489 58.9535 44.0001 60.877 44.0001 63.9641V99.0358C44.0001 102.123 47.3489 104.046 50.0155 102.491L80.077 84.9551Z" fill="#2CAE39"/>
</svg>
