<svg width="148" height="148" viewBox="0 0 148 148" fill="none" xmlns="http://www.w3.org/2000/svg">
<path fill-rule="evenodd" clip-rule="evenodd" d="M17.5858 37.2843C16.8047 36.5032 16.8047 35.2369 17.5858 34.4558L44.4558 7.58579C45.2369 6.80474 46.5032 6.80474 47.2843 7.58579C48.0653 8.36683 48.0653 9.63316 47.2843 10.4142L20.4142 37.2843C19.6332 38.0653 18.3668 38.0653 17.5858 37.2843ZM24 69.9999C24 42.3858 46.3858 19.9999 74 19.9999C101.614 19.9999 124 42.3858 124 69.9999C124 97.6141 101.614 120 74 120C46.3858 120 24 97.6141 24 69.9999ZM74 15.9999C44.1767 15.9999 20 40.1766 20 69.9999C20 92.7836 34.1102 112.272 54.0686 120.202L40.4205 137.773C39.7429 138.645 39.9008 139.902 40.7731 140.579C41.6455 141.257 42.9019 141.099 43.5795 140.227L58.0448 121.604C63.0876 123.161 68.4459 124 74 124C79.5541 124 84.9124 123.161 89.9552 121.604L104.421 140.227C105.098 141.099 106.355 141.257 107.227 140.579C108.099 139.902 108.257 138.645 107.579 137.773L93.9314 120.202C113.89 112.272 128 92.7836 128 69.9999C128 40.1766 103.823 15.9999 74 15.9999ZM39 70.4999C39 50.8938 54.8939 34.9999 74.5 34.9999C94.1061 34.9999 110 50.8938 110 70.4999C110 90.1061 94.1061 106 74.5 106C54.8939 106 39 90.1061 39 70.4999ZM74.5 30.9999C52.6847 30.9999 35 48.6847 35 70.4999C35 92.3152 52.6847 110 74.5 110C96.3153 110 114 92.3152 114 70.4999C114 48.6847 96.3153 30.9999 74.5 30.9999ZM76.5 44.9999C76.5 43.8954 75.6046 42.9999 74.5 42.9999C73.3954 42.9999 72.5 43.8954 72.5 44.9999V70.4999V72.4999H74.5H89.5C90.6046 72.4999 91.5 71.6045 91.5 70.4999C91.5 69.3954 90.6046 68.4999 89.5 68.4999H76.5V44.9999ZM127.456 37.2843C128.237 38.0653 129.503 38.0653 130.284 37.2843C131.065 36.5032 131.065 35.2369 130.284 34.4558L103.414 7.58579C102.633 6.80474 101.367 6.80474 100.586 7.58579C99.8048 8.36684 99.8048 9.63317 100.586 10.4142L127.456 37.2843Z" fill="#2CAE39"/>
</svg>
