<svg width="148" height="150" viewBox="0 0 148 150" fill="none" xmlns="http://www.w3.org/2000/svg">
<path fill-rule="evenodd" clip-rule="evenodd" d="M85.2295 4.42002C79.4749 -1.47335 69.9968 -1.47334 64.2422 4.42003L58.6747 10.1217C56.6367 12.2089 53.8328 13.3703 50.9159 13.3355L42.9474 13.2406C34.711 13.1425 28.009 19.8446 28.1071 28.0809L28.202 36.0494C28.2367 38.9664 27.0753 41.7702 24.9882 43.8083L19.2865 49.3757C13.3931 55.1303 13.3931 64.6085 19.2865 70.3631L24.9882 75.9306C27.0753 77.9686 28.2367 80.7725 28.202 83.6894L28.1071 91.6579C28.0786 94.0467 28.6222 96.3064 29.6093 98.3086L6.58579 121.332C5.80474 122.113 5.80474 123.379 6.58579 124.16L6.62647 124.201C7.00155 124.576 7.51025 124.787 8.04069 124.787H30.1997L30.1997 146.946C30.1997 147.476 30.4104 147.985 30.7855 148.36L30.9908 148.566C31.7719 149.347 33.0382 149.347 33.8193 148.566L65.7323 116.652C70.944 120.716 78.2739 120.767 83.539 116.806L115.181 148.447C115.962 149.229 117.228 149.229 118.009 148.447L118.05 148.407C118.425 148.032 118.635 147.523 118.635 146.993V124.834L140.794 124.834C141.325 124.834 141.834 124.623 142.209 124.248L142.414 124.042C143.195 123.261 143.195 121.995 142.414 121.214L119.744 98.5439C120.806 96.4841 121.394 94.1407 121.365 91.6579L121.27 83.6894C121.235 80.7725 122.396 77.9686 124.484 75.9305L130.185 70.3631C136.079 64.6085 136.079 55.1303 130.185 49.3757L124.484 43.8083C122.396 41.7702 121.235 38.9664 121.27 36.0494L121.365 28.0809C121.463 19.8446 114.761 13.1425 106.524 13.2406L98.5558 13.3355C95.6389 13.3703 92.835 12.2089 90.797 10.1217L85.2295 4.42002ZM117.403 101.86C114.689 104.755 110.815 106.549 106.524 106.498L98.5558 106.403C95.6389 106.369 92.835 107.53 90.797 109.617L86.4543 114.064L114.635 142.246L114.635 122.834C114.635 122.303 114.846 121.794 115.221 121.419C115.596 121.044 116.105 120.834 116.635 120.834L136.377 120.834L117.403 101.86ZM62.8425 113.885L58.6747 109.617C56.6367 107.53 53.8328 106.369 50.9159 106.403L42.9474 106.498C38.5664 106.55 34.6196 104.679 31.8992 101.675L12.7877 120.787H32.1997C32.7301 120.787 33.2389 120.998 33.6139 121.373C33.989 121.748 34.1997 122.257 34.1997 122.787L34.1997 142.528L62.8425 113.885ZM67.1041 7.21457C71.2893 2.92848 78.1824 2.92848 82.3676 7.21456L87.9351 12.9163C90.7374 15.7861 94.5927 17.383 98.6035 17.3352L106.572 17.2403C112.562 17.169 117.436 22.0432 117.365 28.0333L117.27 36.0018C117.222 40.0126 118.819 43.8679 121.689 46.6702L127.391 52.2376C131.677 56.4228 131.677 63.316 127.391 67.5012L121.689 73.0686C118.819 75.8709 117.222 79.7262 117.27 83.737L117.365 91.7055C117.436 97.6956 112.562 102.57 106.572 102.498L98.6035 102.404C94.5927 102.356 90.7374 103.953 87.9351 106.823L82.3676 112.524C78.1824 116.81 71.2893 116.81 67.1041 112.524L61.5366 106.823C58.7344 103.953 54.879 102.356 50.8682 102.404L42.8997 102.498C36.9097 102.57 32.0354 97.6956 32.1068 91.7055L32.2017 83.737C32.2495 79.7263 30.6525 75.8709 27.7827 73.0686L22.081 67.5012C17.7949 63.316 17.7949 56.4228 22.081 52.2376L27.7827 46.6702C30.6525 43.8679 32.2495 40.0126 32.2017 36.0018L32.1068 28.0333C32.0354 22.0432 36.9097 17.169 42.8997 17.2403L50.8682 17.3352C54.879 17.383 58.7344 15.7861 61.5366 12.9163L67.1041 7.21457ZM75.1332 26.8C56.65 26.8 41.6665 41.7835 41.6665 60.2667C41.6665 78.7498 56.65 93.7333 75.1332 93.7333C93.6163 93.7333 108.6 78.7498 108.6 60.2667C108.6 41.7835 93.6163 26.8 75.1332 26.8ZM37.6665 60.2667C37.6665 39.5744 54.4409 22.8 75.1332 22.8C95.8254 22.8 112.6 39.5744 112.6 60.2667C112.6 80.9589 95.8254 97.7333 75.1332 97.7333C54.4409 97.7333 37.6665 80.9589 37.6665 60.2667ZM70.7833 71.9116L94.1762 51.6449L91.557 48.6217L69.4927 67.7373L58.731 58.1406L56.0688 61.126L68.1426 71.8927L69.4546 73.0627L70.7833 71.9116Z" fill="#2CAE39"/>
</svg>
