<svg width="28" height="28" viewBox="0 0 28 28" fill="none" xmlns="http://www.w3.org/2000/svg">
<path fill-rule="evenodd" clip-rule="evenodd" d="M17.8508 12.3229C16.8698 13.3039 15.5073 13.9216 13.9994 13.9216C12.5097 13.9216 11.1291 13.3039 10.1481 12.3229C9.16706 11.3419 8.54939 9.97936 8.54939 8.47152C8.54939 6.96368 9.16706 5.60117 10.1481 4.62016C11.1291 3.63915 12.4916 3.02148 13.9994 3.02148C15.5073 3.02148 16.8698 3.63915 17.8508 4.62016C18.8318 5.60117 19.4495 6.96368 19.4495 8.47152C19.4495 9.97936 18.8318 11.3419 17.8508 12.3229ZM13.9994 5.98267C13.3273 5.98267 12.7096 6.25517 12.2554 6.70934C11.8194 7.16351 11.5287 7.78118 11.5287 8.45335C11.5287 9.12552 11.8012 9.74319 12.2554 10.1974C12.6914 10.6515 13.3091 10.924 13.9994 10.924C14.6716 10.924 15.2893 10.6515 15.7435 10.1974C16.1976 9.76136 16.4701 9.14369 16.4701 8.45335C16.4701 7.78118 16.1976 7.16351 15.7435 6.70934C15.3075 6.25517 14.6898 5.98267 13.9994 5.98267Z" fill="#FFAD73"/>
<path d="M19.7402 13.9397L21.3389 16.1198C21.4297 16.2288 21.4116 16.3741 21.2662 16.4649C19.9219 17.5731 18.3595 18.2998 16.7245 18.6813L20.1035 24.64C20.1944 24.8216 20.0854 25.0215 19.8855 25.0215H16.5792C16.4702 25.0215 16.3793 24.9488 16.343 24.858L13.9813 19.5896L11.6196 24.858C11.5833 24.967 11.4925 25.0215 11.3835 25.0215H8.07709C7.89542 25.0215 7.76825 24.8035 7.85909 24.64L11.2381 18.6813C9.6031 18.2998 8.04075 17.5549 6.69641 16.4649C6.60557 16.3741 6.58741 16.2288 6.66007 16.1198L8.25876 13.9397C8.34959 13.8307 8.53126 13.8126 8.64026 13.9034C10.1481 15.1933 12.0011 16.0289 13.9995 16.0289C15.9978 16.0289 17.8509 15.1933 19.3587 13.9034C19.4677 13.7944 19.6494 13.8126 19.7402 13.9397Z" fill="#FFAD73"/>
</svg>
