<svg width="28" height="28" viewBox="0 0 28 28" fill="none" xmlns="http://www.w3.org/2000/svg">
<path d="M25.5216 8.18492C25.3859 7.67434 25.1185 7.20834 24.7462 6.83358C24.3738 6.45881 23.9095 6.18842 23.3998 6.04947C21.5234 5.54492 14.0234 5.54492 14.0234 5.54492C14.0234 5.54492 6.52344 5.54492 4.64707 6.04947C4.13737 6.18842 3.6731 6.45881 3.30073 6.83358C2.92835 7.20834 2.66094 7.67434 2.52526 8.18492C2.02344 10.0695 2.02344 13.9995 2.02344 13.9995C2.02344 13.9995 2.02344 17.9295 2.52526 19.814C2.66094 20.3246 2.92835 20.7906 3.30073 21.1654C3.6731 21.5401 4.13737 21.8105 4.64707 21.9495C6.52344 22.454 14.0234 22.454 14.0234 22.454C14.0234 22.454 21.5234 22.454 23.3998 21.9495C23.9095 21.8105 24.3738 21.5401 24.7462 21.1654C25.1185 20.7906 25.3859 20.3246 25.5216 19.814C26.0234 17.9295 26.0234 13.9995 26.0234 13.9995C26.0234 13.9995 26.0234 10.0695 25.5216 8.18492Z" fill="#FF7878"/>
<path d="M11.5693 17.5689V10.4316L17.8421 14.0003L11.5693 17.5689Z" fill="#EDF2EF"/>
</svg>
