<svg width="28" height="28" viewBox="0 0 28 28" fill="none" xmlns="http://www.w3.org/2000/svg">
<path d="M14.1584 1.0006C13.3469 1.00518 12.5331 1.05333 11.7123 1.15192C10.1429 1.34222 8.58737 1.65862 7.09464 2.33498C4.72069 3.41027 3.0373 5.2353 2.54902 7.88801C2.34209 9.00687 2.17468 10.1418 2.07935 11.2836C1.89566 13.5007 2.00959 15.7246 2.64668 17.9096C3.1489 19.6315 4.0743 21.1791 5.69492 22.1833C6.38083 22.6075 7.2853 22.8138 7.7573 23.0293C7.88983 23.0912 7.92239 23.1279 7.92936 23.1371C7.93634 23.144 7.95494 23.16 7.95261 23.2976C7.93634 24.7007 7.95261 27.4153 7.95261 27.4153L7.95494 28H9.01752L9.18958 27.8349C9.18958 27.8349 11.8891 25.2739 12.8656 24.2193C13.0423 24.0313 13.133 23.9258 13.1516 23.9143C13.1679 23.9029 13.14 23.896 13.3213 23.8914C14.6025 23.8662 15.8813 23.818 17.1601 23.7492C18.8458 23.6575 20.5641 23.4993 22.2173 22.8184C23.6565 22.2246 24.8586 21.2547 25.5864 19.8011C26.3304 18.3108 26.728 16.7311 26.8768 15.0964C27.1233 12.3749 27.0372 9.64884 26.2746 6.96174C25.8259 5.38662 24.9237 4.05454 23.5403 3.11451C21.8848 1.99106 20.0177 1.5692 18.1901 1.30095C17.1229 1.14504 16.0487 1.04187 14.9698 1.00977C14.7001 1.00289 14.4304 0.998304 14.1584 1.0006ZM14.9373 2.18365C15.9627 2.21117 16.9881 2.30976 18.0158 2.46108C19.7782 2.72016 21.4407 3.11451 22.866 4.08205C24.0216 4.86617 24.7423 5.92542 25.1283 7.27585C25.8398 9.7887 25.9305 12.3635 25.691 14.9932C25.5538 16.5087 25.1888 17.9371 24.5168 19.283C23.9239 20.4706 22.9985 21.2249 21.7569 21.7362C20.3153 22.33 18.7482 22.4882 17.0973 22.5777C15.8325 22.6464 14.5653 22.6923 13.2981 22.7175C12.9795 22.7244 12.668 22.8069 12.4471 22.9674C12.2262 23.1279 12.1262 23.2769 11.989 23.4237C11.2915 24.1757 9.90107 25.4986 9.14308 26.2231C9.13843 25.3473 9.13145 24.288 9.14308 23.3113C9.14773 23.011 9.07797 22.7038 8.90359 22.4607C8.72921 22.2177 8.48972 22.071 8.25953 21.9655C7.58757 21.6583 6.70867 21.4244 6.32735 21.1882C4.99505 20.3629 4.23939 19.1248 3.79064 17.584C3.20238 15.5687 3.09078 13.4938 3.26516 11.3822C3.35816 10.2862 3.5186 9.188 3.72088 8.09894C4.14406 5.8039 5.47403 4.35947 7.58989 3.4011C8.92684 2.79582 10.3545 2.49776 11.8588 2.31663C12.8842 2.19283 13.9096 2.15385 14.9373 2.18365ZM15.1884 5.1092C14.6978 5.1092 14.2212 5.16423 13.7585 5.26511C13.4399 5.33848 13.2376 5.65258 13.3097 5.96898C13.3818 6.28538 13.7026 6.48256 14.0235 6.41148C14.3979 6.32665 14.7885 6.28309 15.1884 6.28309C18.0948 6.28309 20.4385 8.59418 20.4385 11.4578C20.4385 11.8545 20.3944 12.2396 20.3083 12.6111C20.2363 12.9252 20.4362 13.2416 20.7571 13.3127C21.0779 13.3837 21.3965 13.1843 21.4686 12.8679C21.5732 12.4139 21.629 11.9439 21.629 11.4578C21.629 7.95909 18.7389 5.1092 15.1884 5.1092ZM9.25003 6.28538C9.15238 6.2808 9.0524 6.28767 8.94777 6.3106C7.86658 6.54675 6.79238 7.31941 6.76215 8.69965C6.79238 8.89224 6.79005 9.09858 6.86213 9.27283C7.21555 10.1257 7.52247 11.0062 7.96424 11.8132C10.115 15.7338 13.3678 18.4599 17.5135 20.1909C18.0088 20.3972 18.5203 20.4408 19.0202 20.2345C19.7084 19.9525 20.2921 19.5168 20.6803 18.8909C21.2128 18.0311 21.2198 17.435 20.3432 16.7999C19.7689 16.3826 19.2039 15.9539 18.6226 15.5458C17.7367 14.9268 16.7788 14.819 16.1185 15.9058C16.0836 15.9608 16.0324 16.0066 15.9882 16.0525C15.6488 16.4079 15.2326 16.495 14.7908 16.3162C13.1144 15.6352 11.8193 14.537 11.0381 12.9023C10.5777 11.9416 10.7032 11.4601 11.5635 10.8204C11.6496 10.7585 11.7309 10.692 11.81 10.621C12.1867 10.2816 12.2866 9.87812 12.0634 9.42186C11.5589 8.38095 10.8869 7.45239 10.0359 6.65222C9.80574 6.4367 9.543 6.30143 9.25003 6.28538ZM15.1791 6.87003C14.9164 6.87003 14.656 6.89067 14.4002 6.93423C14.1839 6.96174 14.0003 7.10389 13.9212 7.30336C13.8422 7.50512 13.8817 7.73211 14.0212 7.89718C14.163 8.05997 14.3862 8.13563 14.6001 8.08977C14.7862 8.05997 14.9815 8.04392 15.1791 8.04392C17.1136 8.04392 18.6668 9.57548 18.6668 11.483C18.6668 11.6779 18.6505 11.8705 18.6203 12.0539C18.5738 12.2649 18.6505 12.485 18.8156 12.6248C18.983 12.7624 19.2132 12.8014 19.4178 12.7234C19.6201 12.6455 19.7642 12.4643 19.7922 12.2511C19.8363 11.9989 19.8573 11.7421 19.8573 11.483C19.8573 8.94268 17.7553 6.87003 15.1791 6.87003ZM15.0954 8.63086C14.8815 8.62857 14.6815 8.73862 14.5722 8.92204C14.4653 9.10546 14.4653 9.33015 14.5722 9.51357C14.6815 9.69699 14.8815 9.80704 15.0954 9.80475C16.0882 9.80475 16.8811 10.5866 16.8811 11.5656C16.8788 11.7765 16.9904 11.9737 17.1764 12.0814C17.3624 12.1869 17.5903 12.1869 17.7763 12.0814C17.9623 11.9737 18.0739 11.7765 18.0716 11.5656C18.0716 9.95149 16.7323 8.63086 15.0954 8.63086Z" fill="#9378F7"/>
</svg>
