<svg width="36" height="24" viewBox="0 0 36 24" fill="none" xmlns="http://www.w3.org/2000/svg">
<path fill-rule="evenodd" clip-rule="evenodd" d="M18.3679 13.212L3.18795 3.02033C3.06762 3.26633 3 3.54401 3 3.84V20.16C3 21.1939 3.82539 22 4.8042 22H31.1958C32.1746 22 33 21.1939 33 20.16V3.84C33 3.57397 32.9454 3.32281 32.847 3.09614L18.3679 13.212ZM30.9239 2H5.25623L18.3454 10.788L30.9239 2ZM33.0724 0.498942C32.5186 0.181363 31.8782 0 31.1958 0H4.8042C4.14245 0 3.52016 0.170557 2.97813 0.470497C2.66709 0.642615 2.38248 0.857339 2.132 1.10689C1.43314 1.80315 1 2.77052 1 3.84V20.16C1 22.2808 2.7032 24 4.8042 24H31.1958C33.2968 24 35 22.2808 35 20.16V3.84C35 2.78737 34.5804 1.83366 33.9008 1.14C33.6559 0.890032 33.3773 0.673832 33.0724 0.498942Z" fill="#2CAE39"/>
</svg>
