<svg width="28.000000" height="28.000000" viewBox="0 0 28 28" fill="none" xmlns="http://www.w3.org/2000/svg" xmlns:xlink="http://www.w3.org/1999/xlink">
	<desc>
			Created with Pixso.
	</desc>
	<defs>
		<clipPath id="clip8_1090">
			<rect id="SM Icons" width="28.000000" height="28.000000" fill="white" fill-opacity="0"/>
		</clipPath>
	</defs>
	<g clip-path="url(#clip8_1090)">
		<path id="Vector" d="M14 13.9219C15.5078 13.9219 16.8691 13.3037 17.8516 12.3232C18.832 11.3418 19.4492 9.97949 19.4492 8.47168C19.4492 6.96387 18.832 5.60156 17.8516 4.62012C16.8691 3.63867 15.5078 3.02148 14 3.02148C12.4922 3.02148 11.1289 3.63867 10.1484 4.62012C9.16797 5.60156 8.54883 6.96387 8.54883 8.47168C8.54883 9.97949 9.16797 11.3418 10.1484 12.3232C11.1289 13.3037 12.5098 13.9219 14 13.9219ZM12.2559 6.70898C12.709 6.25488 13.3281 5.98242 14 5.98242C14.6895 5.98242 15.3066 6.25488 15.7441 6.70898C16.1973 7.16309 16.4707 7.78125 16.4707 8.45312C16.4707 9.14355 16.1973 9.76172 15.7441 10.1973C15.2891 10.6514 14.6719 10.9238 14 10.9238C13.3086 10.9238 12.6914 10.6514 12.2559 10.1973C11.8008 9.74316 11.5293 9.12598 11.5293 8.45312C11.5293 7.78125 11.8203 7.16309 12.2559 6.70898ZM21.3398 16.1201L19.7402 13.9395C19.6484 13.8125 19.4668 13.7939 19.3594 13.9033C17.8516 15.1934 15.998 16.0293 14 16.0293C12.002 16.0293 10.1484 15.1934 8.64062 13.9033C8.53125 13.8125 8.34961 13.8311 8.25781 13.9395L6.66016 16.1201C6.58789 16.2285 6.60547 16.374 6.69727 16.4648C8.04102 17.5547 9.60352 18.2998 11.2383 18.6816L7.85938 24.6396C7.76758 24.8037 7.89453 25.0215 8.07617 25.0215L11.3828 25.0215C11.4922 25.0215 11.584 24.9668 11.6191 24.8584L13.9805 19.5898L16.3438 24.8584C16.3789 24.9492 16.4707 25.0215 16.5801 25.0215L19.8848 25.0215C20.0859 25.0215 20.1953 24.8213 20.1035 24.6396L16.7246 18.6816C18.3594 18.2998 19.9219 17.5732 21.2656 16.4648C21.4121 16.374 21.4297 16.2285 21.3398 16.1201Z" fill="#EF7F2F" fill-opacity="1.000000" fill-rule="evenodd"/>
	</g>
</svg>
