<svg width="28.000000" height="28.000000" viewBox="0 0 28 28" fill="none" xmlns="http://www.w3.org/2000/svg" xmlns:xlink="http://www.w3.org/1999/xlink">
	<desc>
			Created with Pixso.
	</desc>
	<defs>
		<clipPath id="clip8_1093">
			<rect id="SM Icons" width="28.000000" height="28.000000" fill="white" fill-opacity="0"/>
		</clipPath>
	</defs>
	<g clip-path="url(#clip8_1093)">
		<path id="Vector" d="M25.5215 8.18457C25.3867 7.6748 25.1191 7.20801 24.7461 6.83398C24.373 6.45898 23.9102 6.18848 23.4004 6.0498C21.5234 5.54492 14.0234 5.54492 14.0234 5.54492C14.0234 5.54492 6.52344 5.54492 4.64648 6.0498C4.13672 6.18848 3.67383 6.45898 3.30078 6.83398C2.92773 7.20801 2.66016 7.6748 2.52539 8.18457C2.02344 10.0693 2.02344 13.999 2.02344 13.999C2.02344 13.999 2.02344 17.9297 2.52539 19.8145C2.66016 20.3242 2.92773 20.791 3.30078 21.165C3.67383 21.54 4.13672 21.8105 4.64648 21.9492C6.52344 22.4541 14.0234 22.4541 14.0234 22.4541C14.0234 22.4541 21.5234 22.4541 23.4004 21.9492C23.9102 21.8105 24.373 21.54 24.7461 21.165C25.1191 20.791 25.3867 20.3242 25.5215 19.8145C26.0234 17.9297 26.0234 13.999 26.0234 13.999C26.0234 13.999 26.0234 10.0693 25.5215 8.18457Z" fill="#FF0302" fill-opacity="1.000000" fill-rule="nonzero"/>
		<path id="Vector" d="M11.5703 17.5693L11.5703 10.4316L17.8438 14L11.5703 17.5693Z" fill="#EDF2EF" fill-opacity="1.000000" fill-rule="nonzero"/>
	</g>
</svg>
